<?xml version="1.0" encoding="utf-8"?>
<!-- Generator: Adobe Illustrator 20.0.0, SVG Export Plug-In . SVG Version: 6.00 Build 0)  -->
<svg version="1.1" id="Layer_1" xmlns="http://www.w3.org/2000/svg" xmlns:xlink="http://www.w3.org/1999/xlink" x="0px" y="0px"
	 viewBox="0 0 2560 676" style="enable-background:new 0 0 2560 676;" xml:space="preserve">
<style type="text/css">
	.st0{fill:#FFFFFF;}
</style>
<g>
	<g>
		<g>
			<polygon class="st0" points="182.6,583.5 153.5,513.8 153.2,513.2 142.7,513.2 142.7,596.5 151.4,596.5 151.4,559.6 150.9,528.7 
				179.3,595.9 179.6,596.5 185.6,596.5 214.4,528.3 213.9,559.6 213.9,596.5 222.6,596.5 222.6,513.2 212,513.2 			"/>
			<path class="st0" d="M279.6,512c-9.8,0-17.7,3.4-23.6,10.1c-5.8,6.7-8.7,15.5-8.7,26.1v13.2c0,10.7,2.9,19.5,8.8,26.1
				c5.9,6.7,13.8,10.1,23.6,10.1c9.9,0,18-3.4,23.9-10.1c5.9-6.6,8.9-15.4,8.9-26.1v-13.2c0-10.7-3-19.5-8.9-26.1
				C297.6,515.4,289.6,512,279.6,512z M303.8,548.2v13.4c0,8.6-2.1,15.6-6.4,20.7c-4.2,5.1-10.1,7.7-17.7,7.7
				c-7.5,0-13.2-2.5-17.3-7.7c-4.2-5.2-6.3-12.1-6.3-20.7v-13.4c0-8.5,2.1-15.5,6.3-20.6c4.1-5.1,9.9-7.7,17.3-7.7
				c7.5,0,13.5,2.6,17.7,7.7C301.6,532.8,303.8,539.7,303.8,548.2z"/>
			<path class="st0" d="M379.1,552.7c2.8-1.3,5.2-3.2,7-5.6c2.5-3.3,3.8-7.1,3.8-11.5c0-7.5-2.5-13.1-7.5-16.9
				c-4.9-3.7-11.7-5.5-20.4-5.5h-24.7v83.3h29.1c8.1,0,14.7-2,19.6-6.1s7.4-10,7.4-17.5c0-5.1-1.6-9.7-4.9-13.7
				C386,556.2,382.8,554,379.1,552.7z M346,549.6v-28.7h16c6.3,0,11.1,1.2,14.3,3.7c3.2,2.4,4.7,5.9,4.7,10.8
				c0,4.7-1.5,8.2-4.4,10.6c-3,2.4-7.4,3.7-13,3.7L346,549.6L346,549.6z M384.6,573c0,5-1.6,8.8-4.8,11.6c-3.2,2.8-7.7,4.2-13.5,4.2
				H346v-31.4h21.5c5.6,0,9.9,1.5,12.8,4.4C383.2,564.7,384.6,568.4,384.6,573z"/>
			<rect x="418.9" y="513.2" class="st0" width="8.7" height="83.3"/>
			<polygon class="st0" points="466.3,513.2 457.6,513.2 457.6,596.5 506.5,596.5 506.5,588.8 466.3,588.8 			"/>
			<path class="st0" d="M574.3,569.3c0,6.6-2,11.8-6,15.3c-4,3.6-9.3,5.4-15.7,5.4c-6.3,0-11.5-1.8-15.3-5.4
				c-3.9-3.6-5.8-8.7-5.8-15.3v-56.1h-8.7v56.1c0,9.1,2.8,16.2,8.3,21.1s12.7,7.3,21.6,7.3c8.9,0,16.3-2.5,21.9-7.3
				c5.6-4.9,8.5-12,8.5-21.1v-56.1h-8.7L574.3,569.3L574.3,569.3z"/>
			<polygon class="st0" points="663.3,581.1 618.3,513.2 610.1,513.2 610.1,596.5 618.8,596.5 618.8,528.5 663.7,596.5 671.9,596.5 
				671.9,513.2 663.3,513.2 			"/>
			<rect x="701.9" y="513.2" class="st0" width="8.7" height="83.3"/>
			<polygon class="st0" points="730.9,520.9 758.9,520.9 758.9,596.5 767.6,596.5 767.6,520.9 795.6,520.9 795.6,513.2 730.9,513.2 
							"/>
			<polygon class="st0" points="866.5,513.2 841.9,557.3 817.5,513.2 807.4,513.2 837.5,565.7 837.5,596.5 846.2,596.5 846.2,566.1 
				876.6,513.2 			"/>
		</g>
		<path class="st0" d="M736.2,163.7l-61.1-67l-27.3,70.6l8.5,59.6l-91.6-4.6l-93.5-99.8l-115.1-61l-0.4-0.2l-154.9,50.3l-0.5,0.1
			l-57.6,144.4l82.9,119.2l0.8,1.1L338,413.8l105.2,4.1l89,33.3l68.2-27.8L555.6,381l159.5-124h73l88.4-93.2L736.2,163.7
			L736.2,163.7z M857.6,171.9l-72.9,76.9h-69.2l-16.1-16.4l37.3-60.5H857.6z M729.3,168.3L692,228.8l-27.4-1.4l-8.5-59.1l21.8-56.3
			L729.3,168.3z M693.5,238.1l14.1,14.4l-158,122.8L514,341.7L693.5,238.1z M511.3,333.8v-75.6l52.4-27.7l116.5,5.8L511.3,333.8z
			 M507.3,251.1l-115-66l75.4-54.3l88.5,94.4L507.3,251.1z M288.5,289.5L382,344l53.3,65.5l-95.3-3.7l-108.5-36.1l-75-107.9
			L288.5,289.5z M377.6,187.1l-89,94.1L153,252.8l52.8-132.3L377.6,187.1z M384.1,180.9l-168.5-65.4l139.3-45.3L460.5,126
			L384.1,180.9z M503.1,258.2v78.6H385.8l-89.4-52.1l89-94.1L503.1,258.2z M446.5,410.4L393.3,345h112.3l80.1,75.6l-53.5,21.8
			L446.5,410.4z"/>
	</g>
	<g>
		<path class="st0" d="M1145.1,107.7v58.1c0,9.3-3,16.5-9.1,21.4s-14,7.4-23.7,7.4c-9.4,0-17.1-2.5-22.9-7.4
			c-5.9-5-8.8-12.1-8.8-21.4v-58.1h11.6v58c0,6.5,1.8,11.4,5.5,14.7c3.7,3.4,8.5,5,14.6,5c6.4,0,11.5-1.7,15.4-5s5.9-8.3,5.9-14.7
			v-58H1145.1z"/>
		<path class="st0" d="M1186.6,163.9h-7.5v29.5h-11.6v-91.8h11.6v53.2h7.4l17.4-25.1h13.9l-21.8,28.9l24.9,34.8h-13.6L1186.6,163.9z
			"/>
		<path class="st0" d="M1266.3,140l-5.9-0.4c-3.1,0-5.6,0.7-7.7,2.2c-2.1,1.4-3.7,3.5-4.9,6.1v45.5h-11.6v-63.7h10.4l1.1,9.3
			c1.8-3.3,4-5.9,6.7-7.7c2.6-1.8,5.7-2.8,9.2-2.8c0.9,0,1.7,0.1,2.5,0.2c0.8,0.1,1.4,0.3,1.9,0.4L1266.3,140z"/>
		<path class="st0" d="M1321.3,193.4c-0.4-1.9-0.7-3.6-0.9-5.1c-0.2-1.5-0.3-3-0.4-4.4c-2.2,3.1-5,5.6-8.4,7.7
			c-3.5,2.1-7.2,3.1-11.2,3.1c-6.6,0-11.7-1.7-15.2-5.1c-3.5-3.4-5.2-8.1-5.2-14c0-6.1,2.5-10.8,7.4-14.3c4.9-3.4,11.6-5.1,20-5.1
			h12.6v-6.3c0-3.7-1.1-6.7-3.4-8.9s-5.5-3.3-9.6-3.3c-3.7,0-6.8,1-9.1,2.9s-3.5,4.2-3.5,6.8h-11.1l-0.1-0.4
			c-0.2-4.6,2-8.9,6.6-12.7s10.6-5.8,17.9-5.8c7.2,0,13,1.8,17.4,5.5s6.6,9,6.6,15.9v30.6c0,2.3,0.1,4.5,0.4,6.6
			c0.2,2.1,0.7,4.2,1.3,6.2L1321.3,193.4L1321.3,193.4z M1302,184.9c4.2,0,8-1.1,11.4-3.2c3.4-2.2,5.6-4.6,6.6-7.4V164h-13
			c-4.7,0-8.4,1.2-11.2,3.5c-2.8,2.3-4.2,5.1-4.2,8.3c0,2.8,0.9,5,2.6,6.7C1296,184,1298.6,184.9,1302,184.9z"/>
		<path class="st0" d="M1366,113.4h-11.6v-11.8h11.6V113.4z M1366,193.4h-11.6v-63.7h11.6V193.4z"/>
		<path class="st0" d="M1399.3,129.7l0.8,9.5c2.1-3.4,4.8-6,8-7.9s6.8-2.8,10.9-2.8c6.9,0,12.2,2,15.9,6s5.6,10.2,5.6,18.6v40.2
			H1429v-39.9c0-5.6-1.1-9.6-3.3-11.9c-2.2-2.4-5.6-3.5-10.2-3.5c-3.3,0-6.3,0.8-8.8,2.4c-2.6,1.6-4.6,3.8-6.2,6.6v46.4h-11.6v-63.7
			L1399.3,129.7L1399.3,129.7z"/>
		<path class="st0" d="M1475.1,113.4h-11.6v-11.8h11.6V113.4z M1475.1,193.4h-11.6v-63.7h11.6V193.4z"/>
		<path class="st0" d="M1536.6,193.4c-0.4-1.9-0.7-3.6-0.9-5.1c-0.2-1.5-0.3-3-0.4-4.4c-2.2,3.1-5,5.6-8.4,7.7
			c-3.5,2.1-7.2,3.1-11.2,3.1c-6.6,0-11.7-1.7-15.2-5.1c-3.5-3.4-5.2-8.1-5.2-14c0-6.1,2.5-10.8,7.4-14.3c4.9-3.4,11.6-5.1,20-5.1
			h12.6v-6.3c0-3.7-1.1-6.7-3.4-8.9s-5.5-3.3-9.6-3.3c-3.7,0-6.8,1-9.1,2.9s-3.5,4.2-3.5,6.8h-11.1l-0.1-0.4
			c-0.2-4.6,2-8.9,6.6-12.7s10.6-5.8,17.9-5.8c7.2,0,13,1.8,17.4,5.5s6.6,9,6.6,15.9v30.6c0,2.3,0.1,4.5,0.4,6.6
			c0.2,2.1,0.7,4.2,1.3,6.2L1536.6,193.4L1536.6,193.4z M1517.4,184.9c4.2,0,8-1.1,11.4-3.2c3.4-2.2,5.6-4.6,6.6-7.4V164h-13
			c-4.7,0-8.4,1.2-11.2,3.5c-2.8,2.3-4.2,5.1-4.2,8.3c0,2.8,0.9,5,2.6,6.7C1511.3,184,1513.9,184.9,1517.4,184.9z"/>
		<path class="st0" d="M1579.5,129.7l0.8,9.5c2.1-3.4,4.8-6,8-7.9s6.8-2.8,10.9-2.8c6.9,0,12.2,2,15.9,6c3.8,4,5.6,10.2,5.6,18.6
			v40.2h-11.6v-39.9c0-5.6-1.1-9.6-3.3-11.9c-2.2-2.4-5.6-3.5-10.2-3.5c-3.3,0-6.3,0.8-8.8,2.4c-2.6,1.6-4.6,3.8-6.2,6.6v46.4H1569
			v-63.7L1579.5,129.7L1579.5,129.7z"/>
		<path class="st0" d="M1680.6,193.4v-85.7h26.3c11.2,0,20.2,3.4,27,10.3c6.8,6.9,10.2,15.8,10.2,26.7v11.7
			c0,10.9-3.4,19.8-10.2,26.7c-6.8,6.8-15.8,10.3-27,10.3H1680.6z M1692.2,116.8v67.4h14.7c7.9,0,14.2-2.6,18.7-7.8
			c4.6-5.2,6.8-11.9,6.8-20v-11.8c0-8.1-2.3-14.7-6.8-19.9c-4.6-5.2-10.8-7.8-18.7-7.8h-14.7V116.8z"/>
		<path class="st0" d="M1790.3,194.6c-8.9,0-15.9-3-21.2-8.9s-7.8-13.6-7.8-23v-2.6c0-9.1,2.7-16.6,8.1-22.6s11.8-9,19.2-9
			c8.6,0,15.1,2.6,19.5,7.8s6.6,12.1,6.6,20.7v7.2h-41.3l-0.2,0.3c0.1,6.1,1.7,11.1,4.6,15c3,3.9,7.2,5.9,12.5,5.9
			c3.9,0,7.4-0.6,10.3-1.7c3-1.1,5.5-2.7,7.7-4.6l4.5,7.5c-2.3,2.2-5.3,4.1-9,5.6C1800.1,193.9,1795.6,194.6,1790.3,194.6z
			 M1788.5,137.7c-3.9,0-7.2,1.6-9.9,4.9c-2.8,3.3-4.4,7.4-5.1,12.3l0.1,0.3h29.4v-1.5c0-4.5-1.2-8.3-3.6-11.4
			C1796.9,139.2,1793.3,137.7,1788.5,137.7z"/>
		<path class="st0" d="M1853,174.6l1,4.5h0.4l1.1-4.5l14.6-44.9h11.8l-23.4,63.7h-8.8l-23.7-63.7h11.9L1853,174.6z"/>
		<path class="st0" d="M1922.2,194.6c-8.9,0-15.9-3-21.2-8.9c-5.2-5.9-7.8-13.6-7.8-23v-2.6c0-9.1,2.7-16.6,8.1-22.6s11.8-9,19.2-9
			c8.6,0,15.1,2.6,19.5,7.8s6.6,12.1,6.6,20.7v7.2h-41.3l-0.2,0.3c0.1,6.1,1.7,11.1,4.6,15s7.2,5.9,12.5,5.9c3.9,0,7.4-0.6,10.3-1.7
			c3-1.1,5.5-2.7,7.7-4.6l4.5,7.5c-2.3,2.2-5.3,4.1-9,5.6C1932,193.9,1927.5,194.6,1922.2,194.6z M1920.4,137.7
			c-3.9,0-7.2,1.6-9.9,4.9c-2.8,3.3-4.4,7.4-5.1,12.3l0.1,0.3h29.4v-1.5c0-4.5-1.2-8.3-3.6-11.4
			C1928.8,139.2,1925.2,137.7,1920.4,137.7z"/>
		<path class="st0" d="M1977.8,193.4h-11.6v-91.8h11.6V193.4z"/>
		<path class="st0" d="M1998.2,161c0-9.4,2.6-17.2,7.6-23.3c5.1-6.1,12-9.1,20.8-9.1s15.8,3,20.9,9.1c5.1,6.1,7.7,13.8,7.7,23.3v1.3
			c0,9.5-2.6,17.3-7.6,23.3c-5.1,6-12,9.1-20.8,9.1s-15.7-3-20.9-9.1c-5.1-6.1-7.7-13.8-7.7-23.3V161z M2009.7,162.2
			c0,6.7,1.4,12.3,4.3,16.7c2.8,4.4,7.1,6.6,12.7,6.6c5.5,0,9.7-2.2,12.6-6.6c2.9-4.4,4.3-9.9,4.3-16.7v-1.3
			c0-6.7-1.4-12.2-4.3-16.6c-2.9-4.4-7.1-6.6-12.7-6.6c-5.5,0-9.7,2.2-12.6,6.6c-2.8,4.4-4.3,10-4.3,16.6V162.2z"/>
		<path class="st0" d="M2129.2,164c0,9.2-2.2,16.6-6.6,22.2s-10.5,8.4-18.2,8.4c-3.9,0-7.4-0.7-10.3-2c-3-1.3-5.5-3.3-7.6-5.9v31.1
			H2075v-88.1h8.9l1.8,8.2c2.1-3.1,4.7-5.4,7.8-7s6.7-2.4,10.8-2.4c7.9,0,14,3.1,18.4,9.4s6.6,14.5,6.6,24.8v1.3H2129.2z
			 M2117.6,162.7c0-7.2-1.4-13.1-4.3-17.8c-2.8-4.6-7-7-12.6-7c-3.3,0-6.2,0.8-8.5,2.3c-2.4,1.5-4.2,3.6-5.7,6.2v30.7
			c1.5,2.6,3.4,4.7,5.7,6.1c2.4,1.5,5.2,2.2,8.7,2.2c5.5,0,9.6-2,12.5-6c2.8-4,4.2-9.2,4.2-15.5L2117.6,162.7L2117.6,162.7z"/>
		<path class="st0" d="M2159.6,129.7l0.8,8.4c2.1-3,4.7-5.4,7.9-7c3.2-1.7,6.9-2.5,11.1-2.5c4.2,0,7.9,1,10.9,2.9
			c3,2,5.3,4.9,6.9,8.8c2-3.6,4.6-6.5,7.9-8.6c3.3-2.1,7.1-3.2,11.5-3.2c6.5,0,11.6,2.2,15.4,6.7c3.8,4.4,5.6,11.1,5.6,20.1v38.1
			H2226v-38.2c0-6.3-1.1-10.7-3.2-13.3c-2.2-2.6-5.4-3.9-9.6-3.9c-4,0-7.2,1.4-9.6,4.1c-2.4,2.8-3.9,6.2-4.3,10.4v0.5v40.4h-11.6
			v-38.2c0-6-1.1-10.3-3.3-13.1s-5.4-4.2-9.6-4.2c-3.5,0-6.4,0.7-8.7,2.2c-2.3,1.4-4,3.5-5.2,6.1v47.1h-11.6v-63.7h10.3V129.7z"/>
		<path class="st0" d="M2286.2,194.6c-8.9,0-15.9-3-21.2-8.9c-5.2-5.9-7.8-13.6-7.8-23v-2.6c0-9.1,2.7-16.6,8.1-22.6
			c5.4-6,11.8-9,19.2-9c8.6,0,15.1,2.6,19.5,7.8s6.6,12.1,6.6,20.7v7.2h-41.3l-0.2,0.3c0.1,6.1,1.7,11.1,4.6,15s7.2,5.9,12.5,5.9
			c3.9,0,7.4-0.6,10.3-1.7c3-1.1,5.5-2.7,7.7-4.6l4.5,7.5c-2.3,2.2-5.3,4.1-9,5.6C2296,193.9,2291.5,194.6,2286.2,194.6z
			 M2284.4,137.7c-3.9,0-7.2,1.6-9.9,4.9c-2.8,3.3-4.4,7.4-5.1,12.3l0.1,0.3h29.4v-1.5c0-4.5-1.2-8.3-3.6-11.4
			C2292.8,139.2,2289.2,137.7,2284.4,137.7z"/>
		<path class="st0" d="M2340,129.7l0.8,9.5c2.1-3.4,4.8-6,8-7.9s6.8-2.8,10.9-2.8c6.9,0,12.2,2,15.9,6c3.8,4,5.6,10.2,5.6,18.6v40.2
			h-11.6v-39.9c0-5.6-1.1-9.6-3.3-11.9c-2.2-2.4-5.6-3.5-10.2-3.5c-3.3,0-6.3,0.8-8.8,2.4c-2.6,1.6-4.6,3.8-6.2,6.6v46.4h-11.6
			v-63.7L2340,129.7L2340,129.7z"/>
		<path class="st0" d="M2418.3,114.4v15.4h12.1v8.6h-12.1V177c0,3,0.6,5.1,1.9,6.3c1.2,1.2,2.9,1.8,4.9,1.8c0.7,0,1.4-0.1,2.2-0.2
			c0.8-0.2,1.5-0.4,2.2-0.6l1.5,7.9c-0.9,0.7-2.1,1.3-3.8,1.7s-3.3,0.7-5,0.7c-4.7,0-8.5-1.4-11.2-4.3c-2.8-2.8-4.2-7.3-4.2-13.4
			v-38.7h-10.1v-8.6h10.1v-15.4h11.5V114.4z"/>
		<path class="st0" d="M1099.7,358.4l1.6,10.7l0.4,0.1l2.3-10.8l15.7-56h10.2l15.8,56l2.4,11h0.4l1.7-11l12.8-56h11.6l-20.6,85.7
			h-10.4l-16.9-59.4l-1.5-7.7h-0.4l-1.5,7.7L1106,388h-10.4l-20.6-85.7h11.5L1099.7,358.4z"/>
		<path class="st0" d="M1218.7,389.3c-8.9,0-15.9-3-21.2-8.9c-5.2-5.9-7.8-13.6-7.8-23v-2.6c0-9.1,2.7-16.6,8.1-22.6s11.8-9,19.2-9
			c8.6,0,15.1,2.6,19.5,7.8s6.6,12.1,6.6,20.7v7.2h-41.3l-0.2,0.3c0.1,6.1,1.7,11.1,4.6,15s7.2,5.9,12.5,5.9c3.9,0,7.4-0.6,10.3-1.7
			c3-1.1,5.5-2.7,7.7-4.6l4.5,7.5c-2.3,2.2-5.3,4.1-9,5.6C1228.5,388.5,1224,389.3,1218.7,389.3z M1216.9,332.3
			c-3.9,0-7.2,1.6-9.9,4.9c-2.8,3.3-4.4,7.4-5.1,12.3l0.1,0.3h29.4v-1.5c0-4.5-1.2-8.3-3.6-11.4
			C1225.3,333.8,1221.7,332.3,1216.9,332.3z"/>
		<path class="st0" d="M1302.1,371.1c0-2.6-1-4.6-2.9-6.3c-1.9-1.6-5.6-3.1-11-4.3c-7.7-1.7-13.5-4-17.4-6.8
			c-3.9-2.9-5.8-6.8-5.8-11.8c0-5.2,2.2-9.6,6.6-13.2c4.4-3.6,10.1-5.5,17.2-5.5c7.4,0,13.3,1.9,17.7,5.7c4.4,3.8,6.5,8.4,6.3,13.9
			l-0.1,0.4h-11.1c0-2.8-1.2-5.3-3.5-7.5s-5.4-3.3-9.3-3.3c-4.1,0-7.2,0.9-9.2,2.7s-3,4-3,6.5s0.9,4.5,2.6,5.9
			c1.8,1.4,5.4,2.7,10.8,3.9c8,1.7,14,4.1,17.9,7c3.9,3,5.9,6.9,5.9,11.9c0,5.6-2.3,10.2-6.9,13.7s-10.5,5.2-17.9,5.2
			c-8.1,0-14.5-2.1-19.2-6.2c-4.7-4.1-6.9-8.9-6.6-14.4l0.1-0.4h11.1c0.2,4.1,1.7,7.1,4.6,9s6.2,2.8,10.1,2.8c4.1,0,7.3-0.8,9.7-2.5
			C1300.9,376,1302.1,373.8,1302.1,371.1z"/>
		<path class="st0" d="M1353.4,309v15.4h12.1v8.6h-12.1v38.7c0,3,0.6,5.1,1.9,6.3c1.2,1.2,2.9,1.8,4.9,1.8c0.7,0,1.4-0.1,2.2-0.2
			c0.8-0.2,1.5-0.4,2.2-0.6l1.5,7.9c-0.9,0.7-2.1,1.3-3.8,1.7c-1.7,0.4-3.3,0.7-5,0.7c-4.7,0-8.5-1.4-11.2-4.3
			c-2.8-2.8-4.2-7.3-4.2-13.4v-38.7h-10.1v-8.6h10.1V309H1353.4z"/>
		<path class="st0" d="M1412.7,389.3c-8.9,0-15.9-3-21.2-8.9c-5.2-5.9-7.8-13.6-7.8-23v-2.6c0-9.1,2.7-16.6,8.1-22.6s11.8-9,19.2-9
			c8.6,0,15.1,2.6,19.5,7.8s6.6,12.1,6.6,20.7v7.2h-41.3l-0.2,0.3c0.1,6.1,1.7,11.1,4.6,15s7.2,5.9,12.5,5.9c3.9,0,7.4-0.6,10.3-1.7
			c3-1.1,5.5-2.7,7.7-4.6l4.5,7.5c-2.3,2.2-5.3,4.1-9,5.6C1422.5,388.5,1418,389.3,1412.7,389.3z M1411,332.3
			c-3.9,0-7.2,1.6-9.9,4.9c-2.8,3.3-4.4,7.4-5.1,12.3l0.1,0.3h29.4v-1.5c0-4.5-1.2-8.3-3.6-11.4
			C1419.4,333.8,1415.8,332.3,1411,332.3z"/>
		<path class="st0" d="M1490.6,334.6l-5.9-0.4c-3.1,0-5.6,0.7-7.7,2.2c-2.1,1.4-3.7,3.5-4.9,6.1V388h-11.6v-63.7h10.4l1.1,9.3
			c1.8-3.3,4-5.9,6.7-7.7c2.6-1.8,5.7-2.8,9.2-2.8c0.9,0,1.7,0.1,2.5,0.2c0.8,0.1,1.4,0.3,1.9,0.4L1490.6,334.6z"/>
		<path class="st0" d="M1522.7,324.4l0.8,9.5c2.1-3.4,4.8-6,8-7.9s6.8-2.8,10.9-2.8c6.9,0,12.2,2,15.9,6c3.8,4,5.6,10.2,5.6,18.6
			V388h-11.6v-39.9c0-5.6-1.1-9.6-3.3-11.9c-2.2-2.4-5.6-3.5-10.2-3.5c-3.3,0-6.3,0.8-8.8,2.4c-2.6,1.6-4.6,3.8-6.2,6.6V388h-11.6
			v-63.7h10.5V324.4z"/>
		<path class="st0" d="M1647.1,302.4l27.3,69.6h0.4l27.3-69.6h14.8V388h-11.6v-33.9l1.2-34.8l-0.3-0.1l-27.8,68.8h-7.7l-27.7-68.6
			l-0.3,0.1l1.1,34.7V388h-11.6v-85.7h14.9V302.4z"/>
		<path class="st0" d="M1783.4,388c-0.4-1.9-0.7-3.6-0.9-5.1c-0.2-1.5-0.3-3-0.4-4.4c-2.2,3.1-5,5.6-8.4,7.7
			c-3.5,2.1-7.2,3.1-11.2,3.1c-6.6,0-11.7-1.7-15.2-5.1c-3.5-3.4-5.2-8.1-5.2-14c0-6.1,2.5-10.8,7.4-14.3c4.9-3.4,11.6-5.1,20-5.1
			h12.6v-6.3c0-3.7-1.1-6.7-3.4-8.9s-5.5-3.3-9.6-3.3c-3.7,0-6.8,1-9.1,2.9s-3.5,4.2-3.5,6.8h-11.1l-0.1-0.4
			c-0.2-4.6,2-8.9,6.6-12.7s10.6-5.8,17.9-5.8c7.2,0,13,1.8,17.4,5.5s6.6,9,6.6,15.9v30.6c0,2.3,0.1,4.5,0.4,6.6
			c0.2,2.1,0.7,4.2,1.3,6.2L1783.4,388L1783.4,388z M1764.2,379.5c4.2,0,8-1.1,11.4-3.2c3.4-2.2,5.6-4.6,6.6-7.4v-10.3h-13
			c-4.7,0-8.4,1.2-11.2,3.5c-2.8,2.3-4.2,5.1-4.2,8.3c0,2.8,0.9,5,2.6,6.7C1758.1,378.7,1760.7,379.5,1764.2,379.5z"/>
		<path class="st0" d="M1830.5,324.4l0.8,9.5c2.1-3.4,4.8-6,8-7.9s6.8-2.8,10.9-2.8c6.9,0,12.2,2,15.9,6c3.8,4,5.6,10.2,5.6,18.6
			V388h-11.6v-39.9c0-5.6-1.1-9.6-3.3-11.9c-2.2-2.4-5.6-3.5-10.2-3.5c-3.3,0-6.3,0.8-8.8,2.4c-2.6,1.6-4.6,3.8-6.2,6.6V388H1820
			v-63.7h10.5V324.4z"/>
		<path class="st0" d="M1936.7,388c-0.4-1.9-0.7-3.6-0.9-5.1c-0.2-1.5-0.3-3-0.4-4.4c-2.2,3.1-5,5.6-8.4,7.7
			c-3.5,2.1-7.2,3.1-11.2,3.1c-6.6,0-11.7-1.7-15.2-5.1c-3.5-3.4-5.2-8.1-5.2-14c0-6.1,2.5-10.8,7.4-14.3c4.9-3.4,11.6-5.1,20-5.1
			h12.6v-6.3c0-3.7-1.1-6.7-3.4-8.9s-5.5-3.3-9.6-3.3c-3.7,0-6.8,1-9.1,2.9c-2.3,1.9-3.5,4.2-3.5,6.8h-11.1l-0.1-0.4
			c-0.2-4.6,2-8.9,6.6-12.7s10.6-5.8,17.9-5.8c7.2,0,13,1.8,17.4,5.5s6.6,9,6.6,15.9v30.6c0,2.3,0.1,4.5,0.4,6.6
			c0.2,2.1,0.7,4.2,1.3,6.2L1936.7,388L1936.7,388z M1917.5,379.5c4.2,0,8-1.1,11.4-3.2c3.4-2.2,5.6-4.6,6.6-7.4v-10.3h-13
			c-4.7,0-8.4,1.2-11.2,3.5c-2.8,2.3-4.2,5.1-4.2,8.3c0,2.8,0.9,5,2.6,6.7C1911.5,378.7,1914.1,379.5,1917.5,379.5z"/>
		<path class="st0" d="M1970.6,357.4c0-10.2,2.2-18.5,6.7-24.8s10.6-9.4,18.5-9.4c4,0,7.6,0.8,10.6,2.4c3.1,1.6,5.6,4,7.6,7l1.4-8.3
			h9.2v64c0,8.2-2.4,14.4-7.1,18.8c-4.8,4.4-11.6,6.6-20.5,6.6c-3.1,0-6.4-0.4-9.9-1.3c-3.6-0.8-6.7-2-9.4-3.4l2.9-9
			c2.1,1.2,4.6,2.1,7.5,2.9c2.9,0.7,5.8,1.1,8.7,1.1c5.6,0,9.8-1.3,12.3-3.9c2.6-2.6,3.9-6.5,3.9-11.7v-7.2c-2.1,2.7-4.6,4.7-7.5,6
			c-2.9,1.4-6.2,2-10,2c-7.8,0-13.9-2.8-18.4-8.5c-4.5-5.6-6.7-13-6.7-22.2v-1.1H1970.6z M1982.2,358.6c0,6.4,1.4,11.5,4.1,15.4
			s6.8,5.8,12.4,5.8c3.5,0,6.4-0.8,8.8-2.4c2.4-1.6,4.3-3.8,5.8-6.7v-29.3c-1.5-2.7-3.4-4.9-5.8-6.4c-2.4-1.6-5.3-2.4-8.7-2.4
			c-5.5,0-9.7,2.3-12.4,6.9c-2.7,4.6-4.1,10.6-4.1,17.8v1.3H1982.2z"/>
		<path class="st0" d="M2077.8,389.3c-8.9,0-15.9-3-21.2-8.9c-5.2-5.9-7.8-13.6-7.8-23v-2.6c0-9.1,2.7-16.6,8.1-22.6
			c5.4-6,11.8-9,19.2-9c8.6,0,15.1,2.6,19.5,7.8c4.4,5.2,6.6,12.1,6.6,20.7v7.2h-41.3l-0.2,0.3c0.1,6.1,1.7,11.1,4.6,15
			c3,3.9,7.2,5.9,12.5,5.9c3.9,0,7.4-0.6,10.3-1.7c3-1.1,5.5-2.7,7.7-4.6l4.5,7.5c-2.3,2.2-5.3,4.1-9,5.6
			C2087.6,388.5,2083.1,389.3,2077.8,389.3z M2076.1,332.3c-3.9,0-7.2,1.6-9.9,4.9c-2.8,3.3-4.4,7.4-5.1,12.3l0.1,0.3h29.4v-1.5
			c0-4.5-1.2-8.3-3.6-11.4C2084.5,333.8,2080.9,332.3,2076.1,332.3z"/>
		<path class="st0" d="M2135.9,324.4l0.8,8.4c2.1-3,4.7-5.4,7.9-7c3.2-1.7,6.9-2.5,11.1-2.5c4.2,0,7.9,1,10.9,2.9
			c3,2,5.3,4.9,6.9,8.8c2-3.6,4.6-6.5,7.9-8.6c3.3-2.1,7.1-3.2,11.5-3.2c6.5,0,11.6,2.2,15.4,6.7c3.8,4.4,5.6,11.1,5.6,20.1v38
			h-11.6v-38.2c0-6.3-1.1-10.7-3.2-13.3c-2.2-2.6-5.4-3.9-9.6-3.9c-4,0-7.2,1.4-9.6,4.1c-2.4,2.8-3.9,6.2-4.3,10.4v0.5V388H2164
			v-38.2c0-6-1.1-10.3-3.3-13.1s-5.4-4.2-9.6-4.2c-3.5,0-6.4,0.7-8.7,2.2c-2.3,1.4-4,3.5-5.2,6.1V388h-11.6v-63.7h10.3V324.4z"/>
		<path class="st0" d="M2266.7,389.3c-8.9,0-15.9-3-21.2-8.9c-5.2-5.9-7.8-13.6-7.8-23v-2.6c0-9.1,2.7-16.6,8.1-22.6
			c5.4-6,11.8-9,19.2-9c8.6,0,15.1,2.6,19.5,7.8s6.6,12.1,6.6,20.7v7.2h-41.3l-0.2,0.3c0.1,6.1,1.7,11.1,4.6,15
			c3,3.9,7.2,5.9,12.5,5.9c3.9,0,7.4-0.6,10.3-1.7c3-1.1,5.5-2.7,7.7-4.6l4.5,7.5c-2.3,2.2-5.3,4.1-9,5.6
			C2276.5,388.5,2272,389.3,2266.7,389.3z M2264.9,332.3c-3.9,0-7.2,1.6-9.9,4.9c-2.8,3.3-4.4,7.4-5.1,12.3l0.1,0.3h29.4v-1.5
			c0-4.5-1.2-8.3-3.6-11.4C2273.3,333.8,2269.7,332.3,2264.9,332.3z"/>
		<path class="st0" d="M2324.8,324.4l0.8,9.5c2.1-3.4,4.8-6,8-7.9s6.8-2.8,10.9-2.8c6.9,0,12.2,2,15.9,6c3.8,4,5.6,10.2,5.6,18.6
			V388h-11.6v-39.9c0-5.6-1.1-9.6-3.3-11.9c-2.2-2.4-5.6-3.5-10.2-3.5c-3.3,0-6.3,0.8-8.8,2.4c-2.6,1.6-4.6,3.8-6.2,6.6V388h-11.6
			v-63.7h10.5V324.4z"/>
		<path class="st0" d="M2407.3,309v15.4h12.1v8.6h-12.1v38.7c0,3,0.6,5.1,1.9,6.3c1.2,1.2,2.9,1.8,4.9,1.8c0.7,0,1.4-0.1,2.2-0.2
			c0.8-0.2,1.5-0.4,2.2-0.6l1.5,7.9c-0.9,0.7-2.1,1.3-3.8,1.7s-3.3,0.7-5,0.7c-4.7,0-8.5-1.4-11.2-4.3c-2.8-2.8-4.2-7.3-4.2-13.4
			v-38.7h-10.1v-8.6h10.1V309H2407.3z"/>
		<path class="st0" d="M1144.6,571.3c-2,3.1-5.6,6-10.6,8.6s-11.6,3.9-19.6,3.9c-10.2,0-18.7-3.3-25.4-9.8c-6.7-6.6-10-15-10-25.4
			V531c0-10.4,3.1-18.9,9.4-25.4c6.2-6.6,14.3-9.8,24.1-9.8c9.8,0,17.5,2.4,23.1,7.2s8.5,11,8.6,18.6l-0.1,0.4H1133
			c-0.4-5-2.2-9.1-5.7-12.3c-3.4-3.2-8.4-4.8-14.9-4.8c-6.6,0-11.8,2.4-15.8,7.3c-4,4.9-6,11.1-6,18.6v17.8c0,7.6,2.2,13.9,6.7,18.8
			s10.2,7.4,17.1,7.4c4.9,0,8.8-0.6,11.9-1.9s5.3-2.8,6.6-4.4V549h-18.8v-9.1h30.4v31.4H1144.6z"/>
		<path class="st0" d="M1183.8,582.6h-11.6v-91.8h11.6V582.6z"/>
		<path class="st0" d="M1208.3,550.2c0-9.4,2.6-17.2,7.6-23.3c5.1-6.1,12-9.1,20.8-9.1s15.8,3,20.9,9.1s7.7,13.8,7.7,23.3v1.3
			c0,9.5-2.6,17.3-7.6,23.3c-5.1,6-12,9.1-20.8,9.1s-15.7-3-20.9-9.1c-5.1-6.1-7.7-13.8-7.7-23.3V550.2z M1219.9,551.5
			c0,6.7,1.4,12.3,4.3,16.7c2.8,4.4,7.1,6.6,12.7,6.6c5.5,0,9.7-2.2,12.6-6.6s4.3-9.9,4.3-16.7v-1.3c0-6.7-1.4-12.2-4.3-16.6
			c-2.9-4.4-7.1-6.6-12.7-6.6c-5.5,0-9.7,2.2-12.6,6.6c-2.8,4.4-4.3,10-4.3,16.6V551.5z"/>
		<path class="st0" d="M1343.7,553.2c0,9.2-2.2,16.6-6.6,22.2s-10.5,8.4-18.2,8.4c-4.2,0-7.8-0.8-10.9-2.4s-5.7-4-7.7-7.2l-1.4,8.4
			h-9.5v-91.8h11.6v35.7c2-2.8,4.5-5,7.4-6.5c3-1.5,6.4-2.2,10.4-2.2c7.8,0,14,3.1,18.4,9.4c4.4,6.3,6.6,14.5,6.6,24.8v1.2H1343.7z
			 M1332.1,552c0-7.3-1.3-13.2-4-17.9c-2.7-4.6-6.8-6.9-12.3-6.9c-3.6,0-6.6,0.9-9,2.6c-2.5,1.7-4.4,4.1-5.9,7v27.6
			c1.5,3.1,3.4,5.6,5.9,7.4c2.4,1.8,5.5,2.6,9.1,2.6c5.5,0,9.5-1.9,12.2-5.8s4-9,4-15.4L1332.1,552L1332.1,552z"/>
		<path class="st0" d="M1406,582.6c-0.4-1.9-0.7-3.6-0.9-5.1c-0.2-1.5-0.3-3-0.4-4.4c-2.2,3.1-5,5.6-8.4,7.7
			c-3.5,2.1-7.2,3.1-11.2,3.1c-6.6,0-11.7-1.7-15.2-5.1s-5.2-8.1-5.2-14c0-6.1,2.5-10.8,7.4-14.3c4.9-3.4,11.6-5.1,20-5.1h12.6v-6.3
			c0-3.7-1.1-6.7-3.4-8.9s-5.5-3.3-9.6-3.3c-3.7,0-6.8,1-9.1,2.9c-2.3,1.9-3.5,4.2-3.5,6.8H1368l-0.1-0.4c-0.2-4.6,2-8.9,6.6-12.7
			s10.6-5.8,17.9-5.8c7.2,0,13,1.8,17.4,5.5s6.6,9,6.6,15.9v30.6c0,2.3,0.1,4.5,0.4,6.6c0.2,2.1,0.7,4.2,1.3,6.2H1406V582.6z
			 M1386.8,574.1c4.2,0,8-1.1,11.4-3.2c3.4-2.2,5.6-4.6,6.6-7.4v-10.3h-13c-4.7,0-8.4,1.2-11.2,3.5c-2.8,2.3-4.2,5.1-4.2,8.3
			c0,2.8,0.9,5,2.6,6.7C1380.7,573.3,1383.3,574.1,1386.8,574.1z"/>
		<path class="st0" d="M1454.9,582.6h-11.6v-91.8h11.6V582.6z"/>
		<path class="st0" d="M1524.1,582.6V497h26.3c11.2,0,20.2,3.4,27,10.3c6.8,6.9,10.2,15.8,10.2,26.7v11.7c0,10.9-3.4,19.8-10.2,26.7
			c-6.8,6.8-15.8,10.3-27,10.3h-26.3V582.6z M1535.7,506.1v67.4h14.7c7.9,0,14.2-2.6,18.7-7.8c4.6-5.2,6.8-11.9,6.8-20v-11.8
			c0-8.1-2.3-14.7-6.8-19.9c-4.6-5.2-10.8-7.8-18.7-7.8h-14.7V506.1z"/>
		<path class="st0" d="M1638,583.9c-8.9,0-15.9-3-21.2-8.9c-5.2-5.9-7.8-13.6-7.8-23v-2.6c0-9.1,2.7-16.6,8.1-22.6s11.8-9,19.2-9
			c8.6,0,15.1,2.6,19.5,7.8s6.6,12.1,6.6,20.7v7.2H1621l-0.2,0.3c0.1,6.1,1.7,11.1,4.6,15c3,3.9,7.2,5.9,12.5,5.9
			c3.9,0,7.4-0.6,10.3-1.7c3-1.1,5.5-2.7,7.7-4.6l4.5,7.5c-2.3,2.2-5.3,4.1-9,5.6C1647.8,583.1,1643.3,583.9,1638,583.9z
			 M1636.3,526.9c-3.9,0-7.2,1.6-9.9,4.9c-2.8,3.3-4.4,7.4-5.1,12.3l0.1,0.3h29.4v-1.5c0-4.5-1.2-8.3-3.6-11.4
			C1644.6,528.5,1641,526.9,1636.3,526.9z"/>
		<path class="st0" d="M1697.9,582.6h-11.6v-91.8h11.6V582.6z"/>
		<path class="st0" d="M1737.1,502.7h-11.6v-11.8h11.6V502.7z M1737.1,582.6h-11.6V519h11.6V582.6z"/>
		<path class="st0" d="M1785.4,563.9l1,4.5h0.4l1.1-4.5l14.6-44.9h11.8l-23.4,63.7h-8.8l-23.7-63.7h11.9L1785.4,563.9z"/>
		<path class="st0" d="M1858.8,583.9c-8.9,0-15.9-3-21.2-8.9c-5.2-5.9-7.8-13.6-7.8-23v-2.6c0-9.1,2.7-16.6,8.1-22.6s11.8-9,19.2-9
			c8.6,0,15.1,2.6,19.5,7.8s6.6,12.1,6.6,20.7v7.2h-41.3l-0.2,0.3c0.1,6.1,1.7,11.1,4.6,15c3,3.9,7.2,5.9,12.5,5.9
			c3.9,0,7.4-0.6,10.3-1.7c3-1.1,5.5-2.7,7.7-4.6l4.5,7.5c-2.3,2.2-5.3,4.1-9,5.6C1868.6,583.1,1864.1,583.9,1858.8,583.9z
			 M1857,526.9c-3.9,0-7.2,1.6-9.9,4.9c-2.8,3.3-4.4,7.4-5.1,12.3l0.1,0.3h29.4v-1.5c0-4.5-1.2-8.3-3.6-11.4
			C1865.4,528.5,1861.8,526.9,1857,526.9z"/>
		<path class="st0" d="M1936.6,529.2l-5.9-0.4c-3.1,0-5.6,0.7-7.7,2.2c-2.1,1.4-3.7,3.5-4.9,6.1v45.5h-11.6V519h10.4l1.1,9.3
			c1.8-3.3,4-5.9,6.7-7.7c2.6-1.8,5.7-2.8,9.2-2.8c0.9,0,1.7,0.1,2.5,0.2c0.8,0.1,1.4,0.3,1.9,0.4L1936.6,529.2z"/>
		<path class="st0" d="M1981.2,559.1l2.1,8h0.4l15.6-48.1h12.9l-26.8,73.4c-1.6,4.3-3.9,8-6.9,11.2s-7.1,4.8-12.2,4.8
			c-0.9,0-2.1-0.1-3.6-0.3c-1.4-0.2-2.6-0.4-3.4-0.6l1.2-9.1c-0.2,0,0.5,0,2.1,0.1s2.7,0.2,3.1,0.2c2.5,0,4.5-1.1,6.1-3.3
			c1.6-2.2,2.9-4.6,3.9-7.3l2.8-6.6l-23.6-62.4h12.9L1981.2,559.1z"/>
	</g>
	<rect x="976" y="75" class="st0" width="5" height="541"/>
</g>
</svg>
