<?xml version="1.0" encoding="utf-8"?>
<!-- Generator: Adobe Illustrator 21.0.0, SVG Export Plug-In . SVG Version: 6.00 Build 0)  -->
<svg version="1.1" id="Layer_1" xmlns="http://www.w3.org/2000/svg" xmlns:xlink="http://www.w3.org/1999/xlink" x="0px" y="0px"
	 viewBox="0 0 230 60" style="enable-background:new 0 0 230 60;" xml:space="preserve">
<style type="text/css">
	.st0{fill:#FB503B;}
	.st1{fill:#FA6351;}
</style>
<path class="st0" d="M19.7,0.6c0.1,0,0.2,0.1,0.4,0.1c0.5,0.1,0.9,0.4,1.2,0.8c0.6,1,1.3,2.1,1.9,3.1c4.2,7,8.4,14,12.6,21
	c2.2,3.7,4.4,7.3,6.6,11c0.1,0.2,0.2,0.3,0.5,0.2c3.5-0.9,7-1.7,10.5-2.5c4.8-1.1,9.6-2.3,14.4-3.4c0.3-0.1,0.6-0.1,0.9-0.2
	c-0.1-0.1-0.1-0.2-0.2-0.3c-2.8-4-5.6-8-8.4-12c-0.1-0.1-0.2-0.3-0.2-0.4c-0.2-0.4-0.1-0.7,0.3-0.9c0.4-0.2,0.9-0.3,1.3-0.4
	c1.7-0.3,3.4-0.6,5.1-0.9c1.7-0.3,3.4-0.6,5.1-0.8c0.7-0.1,1.5-0.2,2.2-0.3c0.5-0.1,0.9,0,1.3,0.3c0.4,0.3,0.8,0.7,1.1,1.1
	c3.2,3.9,6.3,7.8,9.4,11.7c0.2,0.2,0.4,0.4,0.5,0.7c0.3,0.4,0.2,0.8-0.3,1c-0.5,0.2-1.1,0.4-1.7,0.5c-3.4,0.9-6.9,1.8-10.3,2.8
	c-0.1,0-0.1,0-0.3,0.1c0.1,0.1,0.1,0.2,0.2,0.2c3.3,4.4,6.6,8.8,9.9,13.3c0.2,0.3,0.4,0.6,0.6,0.9c0.1,0.2,0.2,0.4,0.3,0.6
	c0.1,0.3,0.1,0.6-0.2,0.8c-0.3,0.2-0.6,0.4-0.9,0.5c-2.2,0.8-4.3,1.6-6.5,2.4c-5.2,1.9-10.4,3.7-15.7,5.6c-2.1,0.8-4.2,1.5-6.4,2.2
	c-0.6,0.2-1.3,0.4-2,0.4c-0.7,0-1.2-0.2-1.6-0.7c-0.6-0.5-1-1.2-1.3-1.8C48,53.8,46,50.4,44.1,47c-1.1-1.9-2.2-3.9-3.2-5.8
	C40.8,41,40.7,41,40.5,41c-4.8,1.3-9.6,2.5-14.5,3.8c-1.2,0.3-2.4,0.6-3.7,0.9c-1,0.2-2,0.1-2.9-0.5c-0.6-0.4-1-1-1.3-1.6
	c-1.6-3.4-3.1-6.8-4.7-10.2c-2.8-6.1-5.6-12.1-8.4-18.2c-1.5-3.3-3.1-6.7-4.6-10C0.3,4.7,0.2,4.2,0,3.7c0,0,0-0.1,0-0.1
	c0-0.2,0-0.3,0-0.5C0,3.1,0,3,0.1,3c0.1-0.5,0.4-0.8,0.9-0.9C1.3,2,1.6,2,2,2c0.9-0.1,1.7-0.1,2.6-0.2c0.9-0.1,1.8-0.2,2.7-0.2
	C8.2,1.5,9,1.4,9.9,1.3c0.9-0.1,1.8-0.2,2.7-0.2C13.3,1,14,1,14.7,0.9c1-0.1,1.9-0.1,2.9-0.2c0.4,0,0.8-0.1,1.2-0.1
	C19.1,0.6,19.4,0.6,19.7,0.6z M22.2,41.8c0.2,0,0.4-0.1,0.6-0.1c5.2-1.2,10.3-2.5,15.5-3.7c0.8-0.2,0.7-0.4,0.4-1
	c-4.7-8.2-9.5-16.3-14.2-24.5c-1.8-3.1-3.6-6.2-5.4-9.3C19,3.1,18.8,3,18.6,3c-0.6,0-1.1,0.1-1.7,0.1c-0.8,0.1-1.7,0.2-2.5,0.2
	c-0.8,0.1-1.6,0.1-2.4,0.2c-0.8,0.1-1.7,0.1-2.5,0.2C8.7,3.9,7.9,3.9,7,4C6.2,4.1,5.3,4.2,4.5,4.2C4.1,4.3,4,4.4,4.1,4.8
	c0,0.1,0.1,0.2,0.1,0.2c1.7,3.4,3.3,6.8,5,10.3c1.5,3,2.9,6,4.4,9c2.1,4.3,4.2,8.6,6.3,12.9c0.7,1.4,1.4,2.9,2.1,4.3
	C21.9,41.7,22.1,41.7,22.2,41.8z M44.3,40.1c0.1,0.1,0.1,0.2,0.1,0.2c1.2,2,2.4,4.1,3.6,6.1c1.5,2.6,3.1,5.2,4.6,7.8
	c0.1,0.3,0.3,0.5,0.5,0.7c0.2,0.3,0.5,0.3,0.9,0.2c2.8-1,5.6-1.9,8.5-2.9c5.4-1.8,10.8-3.6,16.1-5.5c0.3-0.1,0.7-0.2,1-0.4
	c0.3-0.1,0.3-0.3,0.2-0.6c-0.1-0.2-0.2-0.3-0.3-0.5c-2.5-3.4-4.9-6.7-7.4-10.1c-0.4-0.5-0.8-1.1-1.2-1.6c-0.3-0.4-0.4-0.4-0.9-0.3
	c-0.1,0-0.3,0.1-0.4,0.1c-3.9,1-7.8,2-11.8,3.1c-3.9,1-7.8,2-11.7,3C45.6,39.7,45,39.9,44.3,40.1z M73.8,17c-0.2,0-0.4,0.1-0.7,0.1
	c-3,0.5-6,1.1-9.1,1.6c-0.5,0.1-0.7,0.2-0.3,0.8c2.5,3.4,5,6.8,7.5,10.3c0.1,0.2,0.2,0.2,0.4,0.2c2.8-0.7,5.5-1.4,8.3-2.1
	c0.6-0.2,1.2-0.3,1.8-0.5c0.4-0.1,0.5-0.3,0.2-0.7c-2-2.5-4-5-6-7.6c-0.5-0.6-0.9-1.2-1.3-1.7C74.5,17.2,74.3,17,73.8,17z"/>
<g>
	<path class="st0" d="M106.8,19.5v2.3H95.2v-21h2.4v18.7H106.8z"/>
	<path class="st0" d="M113.5,16.5l-2.3,5.3h-2.5l9.4-21h2.5l9.4,21h-2.6l-2.3-5.3H113.5z M119.2,3.5l-4.7,10.6h9.4L119.2,3.5z"/>
	<path class="st0" d="M143.4,15.1c-0.5,0-0.9,0.1-1.4,0.1h-5.6v6.6H134v-21h8c5.3,0,8.3,2.6,8.3,7c0,3.5-1.7,5.8-4.7,6.8l4.9,7.1
		h-2.7L143.4,15.1z M142,12.9c3.8,0,6-1.7,6-5c0-3.2-2.2-4.8-6-4.8h-5.6v9.8H142z"/>
	<path class="st0" d="M158.3,16.5l-2.3,5.3h-2.5l9.4-21h2.5l9.4,21h-2.6l-2.3-5.3H158.3z M164,3.5l-4.7,10.6h9.4L164,3.5z"/>
	<path class="st0" d="M183,21.8l-8.5-21h2.6l7.2,18.2l7.3-18.2h2.5l-8.6,21H183z"/>
	<path class="st0" d="M200.6,3.1V10h10.6v2.3h-10.6v7.2h12.2v2.3h-14.6v-21h14.3v2.3H200.6z"/>
	<path class="st0" d="M230.1,19.5v2.3h-11.6v-21h2.4v18.7H230.1z"/>
	<path class="st0" d="M99.8,27.8c4.1,0,7.2,3,7.2,7c0,4-3.1,7-7.3,7h-5.6v-14H99.8z M95.7,40.3h4.1c3.1,0,5.6-2.3,5.6-5.5
		c0-3.1-2.5-5.5-5.6-5.5h-4V40.3z"/>
	<path class="st0" d="M112,29.3v4.6h7.1v1.5H112v4.8h8.2v1.5h-9.8v-14h9.5v1.5H112z"/>
	<path class="st0" d="M127.5,41.8l-5.7-14h1.7l4.8,12.1l4.8-12.1h1.7l-5.7,14H127.5z"/>
	<path class="st0" d="M139.2,29.3v4.6h7.1v1.5h-7.1v4.8h8.2v1.5h-9.8v-14h9.5v1.5H139.2z"/>
	<path class="st0" d="M158.8,40.3v1.5h-7.7v-14h1.6v12.5H158.8z"/>
	<path class="st0" d="M175.2,34.8c0,3.9-3.2,7.1-7.3,7.1c-4.1,0-7.3-3.1-7.3-7.1c0-4,3.2-7,7.3-7C172,27.8,175.2,30.9,175.2,34.8z
		 M162.2,34.8c0,3.1,2.6,5.5,5.7,5.5c3.1,0,5.7-2.5,5.7-5.5c0-3.1-2.6-5.5-5.7-5.5C164.8,29.3,162.2,31.7,162.2,34.8z"/>
	<path class="st0" d="M183.9,27.8c3.5,0,5.5,1.7,5.5,4.7c0,3.1-2,4.9-5.5,4.9h-3.7v4.4h-1.6v-14H183.9z M180.2,35.8h3.6
		c2.5,0,4-1.1,4-3.3c0-2.1-1.5-3.2-4-3.2h-3.6V35.8z"/>
	<path class="st0" d="M194,29.3v4.6h7.1v1.5H194v4.8h8.2v1.5h-9.8v-14h9.5v1.5H194z"/>
	<path class="st0" d="M212.2,37.3c-0.3,0-0.6,0-0.9,0h-3.7v4.4h-1.6v-14h5.3c3.5,0,5.5,1.7,5.5,4.7c0,2.3-1.1,3.9-3.1,4.5l3.3,4.8
		h-1.8L212.2,37.3z M211.2,35.8c2.5,0,4-1.1,4-3.3c0-2.1-1.4-3.2-4-3.2h-3.7v6.5H211.2z"/>
	<path class="st0" d="M229.4,29l-0.7,1.5c-1.3-0.8-2.7-1.2-3.9-1.2c-1.8,0-3,0.7-3,1.9c0,3.6,7.9,1.7,7.9,6.8c0,2.3-2.1,3.8-5.1,3.8
		c-2,0-4-0.9-5.4-2.1l0.7-1.4c1.3,1.3,3.1,2,4.7,2c2,0,3.3-0.8,3.3-2.2c0-3.7-7.9-1.7-7.9-6.7c0-2.2,1.9-3.6,4.8-3.6
		C226.6,27.7,228.3,28.3,229.4,29z"/>
</g>
<g>
	<path class="st1" d="M95.7,55v3.1h-1.1v-8h3c0.9,0,1.6,0.2,2.1,0.7c0.5,0.4,0.7,1,0.7,1.8c0,0.8-0.2,1.4-0.7,1.8
		c-0.5,0.4-1.2,0.6-2.1,0.6H95.7z M95.7,54.2h1.9c0.6,0,1-0.1,1.3-0.4c0.3-0.3,0.5-0.7,0.5-1.2c0-0.5-0.2-0.9-0.5-1.1
		S98.2,51,97.7,51h-2V54.2z"/>
	<path class="st1" d="M108,54.4c0,0.8-0.1,1.5-0.4,2.1c-0.3,0.6-0.6,1-1.1,1.3c-0.5,0.3-1,0.5-1.7,0.5c-0.6,0-1.2-0.2-1.7-0.5
		c-0.5-0.3-0.9-0.8-1.1-1.3c-0.3-0.6-0.4-1.2-0.4-2v-0.6c0-0.8,0.1-1.5,0.4-2s0.6-1,1.1-1.4c0.5-0.3,1-0.5,1.7-0.5
		c0.6,0,1.2,0.2,1.7,0.5c0.5,0.3,0.9,0.8,1.1,1.3c0.3,0.6,0.4,1.3,0.4,2.1V54.4z M106.9,53.9c0-0.9-0.2-1.7-0.6-2.2
		c-0.4-0.5-0.9-0.8-1.6-0.8c-0.7,0-1.2,0.3-1.6,0.8c-0.4,0.5-0.6,1.2-0.6,2.1v0.6c0,0.9,0.2,1.6,0.6,2.2c0.4,0.5,0.9,0.8,1.6,0.8
		c0.7,0,1.2-0.2,1.6-0.7c0.4-0.5,0.6-1.2,0.6-2.1V53.9z"/>
	<path class="st1" d="M111.3,55.6l0.2,1.1l0.2-1l1.6-5.6h0.9l1.5,5.6l0.2,1l0.2-1.1l1.2-5.5h1.1l-1.9,8h-1l-1.6-5.8l-0.1-0.6
		l-0.1,0.6l-1.7,5.8h-1l-1.9-8h1.1L111.3,55.6z"/>
	<path class="st1" d="M124.1,54.5h-3.5v2.8h4v0.9h-5.1v-8h5V51h-4v2.6h3.5V54.5z"/>
	<path class="st1" d="M128.9,54.9H127v3.2h-1.1v-8h2.7c0.9,0,1.6,0.2,2.1,0.6c0.5,0.4,0.7,1,0.7,1.8c0,0.5-0.1,0.9-0.4,1.3
		s-0.6,0.6-1.1,0.8l1.9,3.4v0.1h-1.1L128.9,54.9z M127,54.1h1.6c0.5,0,0.9-0.1,1.3-0.4c0.3-0.3,0.5-0.6,0.5-1.1
		c0-0.5-0.1-0.9-0.4-1.1c-0.3-0.3-0.7-0.4-1.3-0.4H127V54.1z"/>
	<path class="st1" d="M137.4,54.5h-3.5v2.8h4v0.9h-5.1v-8h5V51h-4v2.6h3.5V54.5z"/>
	<path class="st1" d="M139.3,58.2v-8h2.3c0.7,0,1.3,0.2,1.8,0.5s0.9,0.7,1.2,1.3s0.4,1.2,0.4,2v0.5c0,0.8-0.1,1.4-0.4,2
		c-0.3,0.6-0.7,1-1.2,1.3c-0.5,0.3-1.2,0.5-1.9,0.5H139.3z M140.3,51v6.3h1.1c0.8,0,1.4-0.3,1.9-0.8c0.5-0.5,0.7-1.2,0.7-2.2v-0.5
		c0-0.9-0.2-1.6-0.6-2.1c-0.4-0.5-1-0.8-1.8-0.8H140.3z"/>
	<path class="st1" d="M149.4,58.2v-8h2.6c0.9,0,1.5,0.2,2,0.5c0.4,0.4,0.7,0.9,0.7,1.6c0,0.4-0.1,0.7-0.3,1
		c-0.2,0.3-0.5,0.5-0.9,0.7c0.4,0.1,0.8,0.4,1,0.7c0.3,0.3,0.4,0.7,0.4,1.2c0,0.7-0.2,1.3-0.7,1.7c-0.5,0.4-1.1,0.6-2,0.6H149.4z
		 M150.5,53.6h1.6c0.5,0,0.8-0.1,1.1-0.3c0.3-0.2,0.4-0.5,0.4-0.9c0-0.4-0.1-0.8-0.4-1c-0.3-0.2-0.6-0.3-1.2-0.3h-1.6V53.6z
		 M150.5,54.4v2.9h1.7c0.5,0,0.9-0.1,1.2-0.4s0.4-0.6,0.4-1.1c0-1-0.5-1.4-1.6-1.4H150.5z"/>
	<path class="st1" d="M158.6,54.2l2.1-4h1.2l-2.8,5v3h-1.1v-3l-2.8-5h1.2L158.6,54.2z"/>
	<path class="st1" d="M167.1,50.2l2.6,6.5l2.6-6.5h1.4v8h-1.1V55l0.1-3.4l-2.6,6.5h-0.8l-2.6-6.5l0.1,3.3v3.1h-1.1v-8H167.1z"/>
	<path class="st1" d="M181.7,54.4c0,0.8-0.1,1.5-0.4,2.1c-0.3,0.6-0.6,1-1.1,1.3c-0.5,0.3-1,0.5-1.7,0.5c-0.6,0-1.2-0.2-1.7-0.5
		c-0.5-0.3-0.9-0.8-1.1-1.3c-0.3-0.6-0.4-1.2-0.4-2v-0.6c0-0.8,0.1-1.5,0.4-2c0.3-0.6,0.6-1,1.1-1.4c0.5-0.3,1-0.5,1.7-0.5
		c0.6,0,1.2,0.2,1.7,0.5c0.5,0.3,0.9,0.8,1.1,1.3c0.3,0.6,0.4,1.3,0.4,2.1V54.4z M180.6,53.9c0-0.9-0.2-1.7-0.6-2.2
		c-0.4-0.5-0.9-0.8-1.6-0.8c-0.7,0-1.2,0.3-1.6,0.8c-0.4,0.5-0.6,1.2-0.6,2.1v0.6c0,0.9,0.2,1.6,0.6,2.2c0.4,0.5,0.9,0.8,1.6,0.8
		c0.7,0,1.2-0.2,1.6-0.7c0.4-0.5,0.6-1.2,0.6-2.1V53.9z"/>
	<path class="st1" d="M183.3,58.2v-8h2.6c0.9,0,1.5,0.2,2,0.5c0.4,0.4,0.7,0.9,0.7,1.6c0,0.4-0.1,0.7-0.3,1
		c-0.2,0.3-0.5,0.5-0.9,0.7c0.4,0.1,0.8,0.4,1,0.7c0.3,0.3,0.4,0.7,0.4,1.2c0,0.7-0.2,1.3-0.7,1.7c-0.5,0.4-1.1,0.6-2,0.6H183.3z
		 M184.3,53.6h1.6c0.5,0,0.8-0.1,1.1-0.3c0.3-0.2,0.4-0.5,0.4-0.9c0-0.4-0.1-0.8-0.4-1c-0.3-0.2-0.6-0.3-1.2-0.3h-1.6V53.6z
		 M184.3,54.4v2.9h1.7c0.5,0,0.9-0.1,1.2-0.4s0.4-0.6,0.4-1.1c0-1-0.5-1.4-1.6-1.4H184.3z"/>
	<path class="st1" d="M191.4,58.2h-1.1v-8h1.1V58.2z"/>
	<path class="st1" d="M194.4,57.3h3.8v0.9h-4.9v-8h1.1V57.3z"/>
	<path class="st1" d="M204.8,50.2v5.4c0,0.8-0.2,1.4-0.7,1.9c-0.5,0.5-1.1,0.7-1.9,0.8l-0.3,0c-0.9,0-1.6-0.2-2.1-0.7
		s-0.8-1.1-0.8-2v-5.5h1v5.4c0,0.6,0.2,1,0.5,1.4c0.3,0.3,0.8,0.5,1.4,0.5c0.6,0,1.1-0.2,1.4-0.5c0.3-0.3,0.5-0.8,0.5-1.3v-5.4
		H204.8z"/>
	<path class="st1" d="M212.6,58.2h-1.1l-4-6.2v6.2h-1.1v-8h1.1l4,6.2v-6.2h1.1V58.2z"/>
	<path class="st1" d="M215.6,58.2h-1.1v-8h1.1V58.2z"/>
	<path class="st1" d="M222.9,51h-2.6v7.1h-1V51h-2.6v-0.9h6.2V51z"/>
	<path class="st1" d="M226.6,54.2l2.1-4h1.2l-2.8,5v3h-1.1v-3l-2.8-5h1.2L226.6,54.2z"/>
</g>
</svg>
