<svg width="22" height="19" viewBox="0 0 22 19" fill="none" xmlns="http://www.w3.org/2000/svg">
<path d="M0 14.1428H22V15.7143H0V14.1428Z" fill="#708398"/>
<path d="M0 17.2856H22V18.8571H0V17.2856Z" fill="#708398"/>
<path d="M17.2853 4.71436C16.9745 4.71436 16.6707 4.80652 16.4123 4.97919C16.1538 5.15186 15.9524 5.39728 15.8335 5.68442C15.7145 5.97157 15.6834 6.28753 15.7441 6.59235C15.8047 6.89718 15.9544 7.17718 16.1741 7.39695C16.3939 7.61672 16.6739 7.76638 16.9787 7.82702C17.2836 7.88765 17.5995 7.85653 17.8867 7.7376C18.1738 7.61866 18.4192 7.41724 18.5919 7.15882C18.7646 6.9004 18.8567 6.59658 18.8567 6.28578C18.8567 5.86902 18.6912 5.46932 18.3965 5.17462C18.1018 4.87992 17.7021 4.71436 17.2853 4.71436Z" fill="#708398"/>
<path d="M11.0003 9.42854C10.3787 9.42854 9.77104 9.24421 9.2542 8.89887C8.73736 8.55353 8.33453 8.06268 8.09666 7.4884C7.85878 6.91412 7.79654 6.2822 7.91781 5.67254C8.03908 5.06289 8.33841 4.50288 8.77794 4.06335C9.21748 3.62381 9.77749 3.32448 10.3871 3.20321C10.9968 3.08194 11.6287 3.14418 12.203 3.38206C12.7773 3.61993 13.2681 4.02276 13.6135 4.5396C13.9588 5.05644 14.1431 5.66408 14.1431 6.28568C14.1421 7.1189 13.8106 7.91769 13.2215 8.50687C12.6323 9.09604 11.8335 9.4275 11.0003 9.42854ZM11.0003 4.71425C10.6895 4.71425 10.3857 4.80642 10.1272 4.97909C9.86882 5.15176 9.66741 5.39718 9.54847 5.68432C9.42953 5.97146 9.39841 6.28743 9.45905 6.59225C9.51968 6.89708 9.66935 7.17708 9.88911 7.39685C10.1089 7.61662 10.3889 7.76628 10.6937 7.82692C10.9985 7.88755 11.3145 7.85643 11.6016 7.73749C11.8888 7.61856 12.1342 7.41714 12.3069 7.15872C12.4795 6.9003 12.5717 6.59648 12.5717 6.28568C12.5713 5.86904 12.4056 5.46958 12.111 5.17497C11.8164 4.88036 11.4169 4.71467 11.0003 4.71425Z" fill="#708398"/>
<path d="M4.71401 4.71436C4.40321 4.71436 4.09939 4.80652 3.84097 4.97919C3.58255 5.15186 3.38113 5.39728 3.2622 5.68442C3.14326 5.97157 3.11214 6.28753 3.17277 6.59235C3.23341 6.89718 3.38307 7.17718 3.60284 7.39695C3.82261 7.61672 4.10261 7.76638 4.40744 7.82702C4.71226 7.88765 5.02823 7.85653 5.31537 7.7376C5.60251 7.61866 5.84793 7.41724 6.0206 7.15882C6.19327 6.9004 6.28544 6.59658 6.28544 6.28578C6.28544 5.86902 6.11988 5.46932 5.82518 5.17462C5.53048 4.87992 5.13078 4.71436 4.71401 4.71436Z" fill="#708398"/>
<path d="M20.4286 12.5714H1.57143C1.15498 12.5704 0.755882 12.4045 0.461407 12.11C0.166931 11.8155 0.00103724 11.4164 0 11V1.57143C0.00103724 1.15498 0.166931 0.755882 0.461407 0.461406C0.755882 0.166931 1.15498 0.00103724 1.57143 0H20.4286C20.845 0.00103724 21.2441 0.166931 21.5386 0.461406C21.8331 0.755882 21.999 1.15498 22 1.57143V11C21.9994 11.4166 21.8336 11.8159 21.5391 12.1105C21.2445 12.405 20.8451 12.5708 20.4286 12.5714ZM20.4286 1.57143H1.57143V11H20.4286V1.57143Z" fill="#708398"/>
</svg>
