<svg width="18" height="15" viewBox="0 0 18 15" fill="none" xmlns="http://www.w3.org/2000/svg">
<path d="M0 11.1431H17.3333V12.3812H0V11.1431Z" fill="#83BB26"/>
<path d="M0 13.6191H17.3333V14.8572H0V13.6191Z" fill="#83BB26"/>
<path d="M13.619 3.71436C13.3741 3.71436 13.1347 3.78697 12.9311 3.92301C12.7275 4.05906 12.5688 4.25242 12.4751 4.47865C12.3814 4.70488 12.3569 4.95382 12.4046 5.19399C12.4524 5.43416 12.5703 5.65477 12.7435 5.82792C12.9166 6.00107 13.1372 6.11898 13.3774 6.16676C13.6176 6.21453 13.8665 6.19001 14.0928 6.0963C14.319 6.00259 14.5124 5.8439 14.6484 5.6403C14.7844 5.4367 14.8571 5.19732 14.8571 4.95245C14.8571 4.62409 14.7266 4.30917 14.4944 4.07699C14.2622 3.8448 13.9473 3.71436 13.619 3.71436Z" fill="#83BB26"/>
<path d="M8.66662 7.42846C8.17688 7.42846 7.69813 7.28323 7.29092 7.01114C6.88372 6.73906 6.56634 6.35233 6.37892 5.89986C6.1915 5.4474 6.14247 4.94952 6.23801 4.46919C6.33355 3.98885 6.56939 3.54764 6.91569 3.20134C7.26199 2.85503 7.70321 2.6192 8.18354 2.52365C8.66388 2.42811 9.16175 2.47715 9.61422 2.66456C10.0667 2.85198 10.4534 3.16936 10.7255 3.57657C10.9976 3.98378 11.1428 4.46252 11.1428 4.95227C11.142 5.60874 10.8808 6.23809 10.4166 6.70229C9.95245 7.16649 9.3231 7.42764 8.66662 7.42846ZM8.66662 3.71417C8.42175 3.71417 8.18238 3.78678 7.97877 3.92283C7.77517 4.05887 7.61648 4.25224 7.52277 4.47847C7.42906 4.7047 7.40454 4.95364 7.45232 5.19381C7.50009 5.43397 7.61801 5.65458 7.79116 5.82773C7.96431 6.00088 8.18491 6.1188 8.42508 6.16657C8.66525 6.21434 8.91419 6.18983 9.14042 6.09612C9.36665 6.00241 9.56002 5.84372 9.69606 5.64012C9.8321 5.43651 9.90472 5.19714 9.90472 4.95227C9.90439 4.624 9.77384 4.30928 9.54173 4.07716C9.30961 3.84505 8.99488 3.7145 8.66662 3.71417Z" fill="#83BB26"/>
<path d="M3.71466 3.71436C3.46979 3.71436 3.23041 3.78697 3.02681 3.92301C2.82321 4.05906 2.66452 4.25242 2.57081 4.47865C2.4771 4.70488 2.45258 4.95382 2.50035 5.19399C2.54812 5.43416 2.66604 5.65477 2.83919 5.82792C3.01234 6.00107 3.23295 6.11898 3.47312 6.16676C3.71329 6.21453 3.96222 6.19001 4.18846 6.0963C4.41469 6.00259 4.60805 5.8439 4.7441 5.6403C4.88014 5.4367 4.95275 5.19732 4.95275 4.95245C4.95275 4.62409 4.82231 4.30917 4.59012 4.07699C4.35794 3.8448 4.04302 3.71436 3.71466 3.71436Z" fill="#83BB26"/>
<path d="M16.0952 9.90476H1.2381C0.909983 9.90394 0.595543 9.77324 0.363532 9.54123C0.131521 9.30922 0.000817219 8.99478 0 8.66667V1.2381C0.000817219 0.909983 0.131521 0.595543 0.363532 0.363532C0.595543 0.131521 0.909983 0.000817219 1.2381 0H16.0952C16.4234 0.000817219 16.7378 0.131521 16.9698 0.363532C17.2018 0.595543 17.3325 0.909983 17.3333 1.2381V8.66667C17.3328 8.99488 17.2022 9.30951 16.9702 9.54159C16.7381 9.77367 16.4235 9.90427 16.0952 9.90476ZM16.0952 1.2381H1.2381V8.66667H16.0952V1.2381Z" fill="#83BB26"/>
</svg>
