<svg width="50" height="50" viewBox="0 0 50 50" fill="none" xmlns="http://www.w3.org/2000/svg">
<circle cx="25" cy="25" r="25" fill="#5BC0AE"/>
<path d="M24.864 33.24C24 33.24 23.104 33.128 22.176 32.904C21.248 32.68 20.44 32.344 19.752 31.896C19.432 31.688 19.216 31.448 19.104 31.176C18.992 30.904 18.96 30.648 19.008 30.408C19.072 30.152 19.192 29.936 19.368 29.76C19.56 29.584 19.792 29.48 20.064 29.448C20.352 29.416 20.664 29.488 21 29.664C21.656 30.016 22.288 30.272 22.896 30.432C23.504 30.576 24.128 30.648 24.768 30.648C25.472 30.648 26.064 30.552 26.544 30.36C27.024 30.168 27.384 29.88 27.624 29.496C27.88 29.112 28.008 28.648 28.008 28.104C28.008 27.304 27.736 26.712 27.192 26.328C26.664 25.928 25.888 25.728 24.864 25.728H23.328C22.88 25.728 22.536 25.616 22.296 25.392C22.072 25.168 21.96 24.856 21.96 24.456C21.96 24.056 22.072 23.744 22.296 23.52C22.536 23.296 22.88 23.184 23.328 23.184H24.576C25.184 23.184 25.704 23.088 26.136 22.896C26.568 22.688 26.904 22.4 27.144 22.032C27.384 21.664 27.504 21.216 27.504 20.688C27.504 19.952 27.256 19.392 26.76 19.008C26.28 18.624 25.576 18.432 24.648 18.432C24.056 18.432 23.496 18.504 22.968 18.648C22.456 18.776 21.888 19.024 21.264 19.392C20.976 19.568 20.696 19.64 20.424 19.608C20.168 19.576 19.952 19.472 19.776 19.296C19.6 19.12 19.48 18.912 19.416 18.672C19.352 18.416 19.368 18.16 19.464 17.904C19.56 17.632 19.76 17.4 20.064 17.208C20.752 16.76 21.512 16.424 22.344 16.2C23.176 15.96 24.032 15.84 24.912 15.84C26.08 15.84 27.08 16.024 27.912 16.392C28.744 16.744 29.376 17.256 29.808 17.928C30.256 18.584 30.48 19.384 30.48 20.328C30.48 21 30.352 21.616 30.096 22.176C29.84 22.72 29.48 23.184 29.016 23.568C28.552 23.952 27.992 24.224 27.336 24.384V24.096C28.488 24.288 29.384 24.768 30.024 25.536C30.664 26.288 30.984 27.232 30.984 28.368C30.984 29.36 30.736 30.224 30.24 30.96C29.744 31.696 29.04 32.264 28.128 32.664C27.216 33.048 26.128 33.24 24.864 33.24Z" fill="white"/>
</svg>
