<svg width="50" height="50" viewBox="0 0 50 50" fill="none" xmlns="http://www.w3.org/2000/svg">
<circle cx="25" cy="25" r="25" fill="#83BB26"/>
<path d="M21.744 33C21.328 33 21 32.888 20.76 32.664C20.536 32.424 20.424 32.104 20.424 31.704C20.424 31.288 20.536 30.976 20.76 30.768C21 30.56 21.328 30.456 21.744 30.456H24.432V18.672H25.92L22.392 20.808C22.088 20.984 21.8 21.056 21.528 21.024C21.272 20.976 21.048 20.864 20.856 20.688C20.68 20.496 20.56 20.272 20.496 20.016C20.432 19.76 20.448 19.504 20.544 19.248C20.656 18.976 20.864 18.752 21.168 18.576L24.48 16.584C24.8 16.392 25.12 16.232 25.44 16.104C25.76 15.96 26.056 15.888 26.328 15.888C26.664 15.888 26.944 15.984 27.168 16.176C27.392 16.352 27.504 16.648 27.504 17.064V30.456H29.952C30.368 30.456 30.688 30.56 30.912 30.768C31.152 30.976 31.272 31.288 31.272 31.704C31.272 32.12 31.152 32.44 30.912 32.664C30.688 32.888 30.368 33 29.952 33H21.744Z" fill="white"/>
</svg>
