<svg width="50" height="50" viewBox="0 0 50 50" fill="none" xmlns="http://www.w3.org/2000/svg">
<circle cx="25" cy="25" r="25" fill="#54A8BB"/>
<path d="M27.912 33.192C27.432 33.192 27.056 33.064 26.784 32.808C26.512 32.536 26.376 32.152 26.376 31.656V29.784H20.448C19.952 29.784 19.552 29.68 19.248 29.472C18.96 29.264 18.816 28.936 18.816 28.488C18.816 28.232 18.88 27.952 19.008 27.648C19.152 27.344 19.4 26.944 19.752 26.448L26.328 16.92C26.552 16.584 26.8 16.328 27.072 16.152C27.344 15.976 27.656 15.888 28.008 15.888C28.424 15.888 28.768 16.016 29.04 16.272C29.312 16.512 29.448 16.896 29.448 17.424V27.24H30.624C31.088 27.24 31.432 27.352 31.656 27.576C31.896 27.784 32.016 28.096 32.016 28.512C32.016 28.928 31.896 29.248 31.656 29.472C31.432 29.68 31.088 29.784 30.624 29.784H29.448V31.656C29.448 32.152 29.312 32.536 29.04 32.808C28.768 33.064 28.392 33.192 27.912 33.192ZM26.376 27.24V19.752H27.072L21.408 28.056V27.24H26.376Z" fill="white"/>
</svg>
