<svg width="50" height="50" viewBox="0 0 50 50" fill="none" xmlns="http://www.w3.org/2000/svg">
<circle cx="25" cy="25" r="25" fill="#70B6DD"/>
<path d="M21.192 33C20.68 33 20.304 32.888 20.064 32.664C19.84 32.424 19.728 32.08 19.728 31.632C19.728 31.36 19.8 31.096 19.944 30.84C20.088 30.584 20.296 30.312 20.568 30.024L25.392 24.888C26.128 24.12 26.656 23.424 26.976 22.8C27.296 22.16 27.456 21.52 27.456 20.88C27.456 20.08 27.2 19.472 26.688 19.056C26.192 18.64 25.464 18.432 24.504 18.432C23.96 18.432 23.416 18.512 22.872 18.672C22.328 18.816 21.776 19.072 21.216 19.44C20.928 19.632 20.656 19.712 20.4 19.68C20.16 19.648 19.944 19.544 19.752 19.368C19.576 19.192 19.456 18.976 19.392 18.72C19.328 18.464 19.336 18.208 19.416 17.952C19.512 17.68 19.704 17.448 19.992 17.256C20.68 16.792 21.448 16.44 22.296 16.2C23.16 15.96 24.024 15.84 24.888 15.84C26.104 15.84 27.128 16.024 27.96 16.392C28.792 16.76 29.424 17.296 29.856 18C30.288 18.704 30.504 19.56 30.504 20.568C30.504 21.24 30.392 21.896 30.168 22.536C29.96 23.176 29.632 23.824 29.184 24.48C28.752 25.136 28.184 25.832 27.48 26.568L22.968 31.272V30.456H30.024C30.456 30.456 30.784 30.56 31.008 30.768C31.232 30.976 31.344 31.288 31.344 31.704C31.344 32.12 31.232 32.44 31.008 32.664C30.784 32.888 30.456 33 30.024 33H21.192Z" fill="white"/>
</svg>
