<svg width="50" height="50" viewBox="0 0 50 50" fill="none" xmlns="http://www.w3.org/2000/svg">
<circle cx="25" cy="25" r="25" fill="#5FBD90"/>
<path d="M25.344 33.24C24.496 33.24 23.632 33.128 22.752 32.904C21.872 32.68 21.064 32.336 20.328 31.872C20.024 31.68 19.816 31.456 19.704 31.2C19.608 30.928 19.584 30.664 19.632 30.408C19.696 30.136 19.816 29.912 19.992 29.736C20.184 29.544 20.408 29.432 20.664 29.4C20.936 29.368 21.232 29.44 21.552 29.616C22.144 29.952 22.744 30.208 23.352 30.384C23.96 30.56 24.608 30.648 25.296 30.648C25.968 30.648 26.544 30.528 27.024 30.288C27.504 30.048 27.872 29.712 28.128 29.28C28.384 28.848 28.512 28.344 28.512 27.768C28.512 26.872 28.24 26.152 27.696 25.608C27.152 25.048 26.408 24.768 25.464 24.768C24.952 24.768 24.456 24.856 23.976 25.032C23.496 25.192 23.024 25.48 22.56 25.896C22.416 26.024 22.232 26.152 22.008 26.28C21.784 26.392 21.544 26.448 21.288 26.448C20.888 26.448 20.584 26.344 20.376 26.136C20.168 25.928 20.064 25.64 20.064 25.272V17.424C20.064 16.992 20.176 16.664 20.4 16.44C20.64 16.2 20.976 16.08 21.408 16.08H29.304C29.736 16.08 30.064 16.192 30.288 16.416C30.528 16.624 30.648 16.936 30.648 17.352C30.648 17.752 30.528 18.064 30.288 18.288C30.064 18.512 29.736 18.624 29.304 18.624H23.064V24H22.272C22.688 23.44 23.24 23.008 23.928 22.704C24.616 22.4 25.368 22.248 26.184 22.248C27.256 22.248 28.184 22.48 28.968 22.944C29.768 23.392 30.384 24.024 30.816 24.84C31.264 25.64 31.488 26.576 31.488 27.648C31.488 28.752 31.24 29.728 30.744 30.576C30.248 31.408 29.536 32.064 28.608 32.544C27.696 33.008 26.608 33.24 25.344 33.24Z" fill="white"/>
</svg>
