<svg width="91" height="91" viewBox="0 0 91 91" fill="none" xmlns="http://www.w3.org/2000/svg">
<circle opacity="0.8" cx="45.0348" cy="45.5871" r="45.0348" fill="#186C97"/>
<path d="M67.9747 44.737L67.9747 44.737L67.973 44.7325C66.1799 40.0944 63.0671 36.0834 59.0192 33.1951C54.9713 30.3069 50.1659 28.6681 45.1967 28.4812L45.1886 28.4809L45.1804 28.4812C40.2112 28.6681 35.4058 30.3069 31.3579 33.1951C27.31 36.0834 24.1972 40.0944 22.4041 44.7325L22.4041 44.7325L22.4024 44.737C22.2651 45.117 22.2651 45.533 22.4024 45.913L22.4024 45.913L22.4041 45.9175C24.1972 50.5556 27.31 54.5666 31.3579 57.4549C35.4058 60.3431 40.2112 61.9819 45.1804 62.1688L45.1886 62.1691L45.1967 62.1688C50.1659 61.9819 54.9713 60.3431 59.0192 57.4549C63.0671 54.5666 66.1799 50.5556 67.973 45.9175L67.973 45.9175L67.9747 45.913C68.112 45.533 68.112 45.117 67.9747 44.737ZM45.1886 58.7102C37.3001 58.7102 28.9445 52.8709 25.8804 45.325C28.9445 37.7791 37.3001 31.9398 45.1886 31.9398C53.077 31.9398 61.4326 37.7791 64.4967 45.325C61.4326 52.8709 53.077 58.7102 45.1886 58.7102Z" fill="white" stroke="white" stroke-width="0.435821"/>
<path d="M45.1886 36.0384C43.3519 36.0384 41.5564 36.5831 40.0292 37.6035C38.502 38.624 37.3118 40.0743 36.6089 41.7712C35.906 43.4682 35.7221 45.3354 36.0804 47.1368C36.4387 48.9383 37.3232 50.593 38.622 51.8918C39.9207 53.1905 41.5755 54.075 43.3769 54.4333C45.1783 54.7916 47.0456 54.6077 48.7425 53.9048C50.4394 53.202 51.8898 52.0117 52.9102 50.4845C53.9306 48.9573 54.4753 47.1618 54.4753 45.3251C54.4753 42.8621 53.4969 40.5 51.7553 38.7584C50.0137 37.0169 47.6516 36.0384 45.1886 36.0384ZM45.1886 51.153C44.036 51.153 42.9092 50.8112 41.9508 50.1708C40.9924 49.5305 40.2454 48.6203 39.8043 47.5553C39.3632 46.4904 39.2478 45.3186 39.4727 44.1881C39.6976 43.0576 40.2526 42.0192 41.0677 41.2041C41.8827 40.3891 42.9211 39.834 44.0517 39.6092C45.1822 39.3843 46.354 39.4997 47.4189 39.9408C48.4838 40.3819 49.394 41.1289 50.0344 42.0873C50.6747 43.0457 51.0165 44.1724 51.0165 45.3251C51.0165 46.8708 50.4025 48.3531 49.3096 49.4461C48.2166 50.539 46.7343 51.153 45.1886 51.153Z" fill="white" stroke="white" stroke-width="0.435821"/>
</svg>
