<svg width="86" height="86" viewBox="0 0 86 86" fill="none" xmlns="http://www.w3.org/2000/svg">
<circle opacity="0.3" cx="43" cy="43" r="42" stroke="#83BB26" stroke-width="2"/>
<path opacity="0.1" d="M27.4707 43.0001C27.4707 34.4235 34.4216 27.4707 43.0001 27.4707C51.5768 27.4707 58.5295 34.4216 58.5295 43.0001C58.5295 51.5768 51.5787 58.5295 43.0001 58.5295C34.4235 58.5295 27.4707 51.5787 27.4707 43.0001Z" fill="#83BB26"/>
<path d="M19 43C19 29.7452 29.7423 19 43 19C56.2548 19 67 29.7423 67 43C67 56.2548 56.2577 67 43 67C29.7452 67 19 56.2577 19 43ZM23.8 43C23.8 53.6057 32.395 62.2 43 62.2C53.6057 62.2 62.2 53.605 62.2 43C62.2 32.3943 53.605 23.8 43 23.8C32.3943 23.8 23.8 32.395 23.8 43Z" fill="#83BB26"/>
<path d="M45.4001 28.6001H40.6001V45.4001H45.4001V28.6001Z" fill="#83BB26"/>
<path d="M52.6001 40.6001H40.6001V45.4001H52.6001V40.6001Z" fill="#83BB26"/>
</svg>
