<svg width="20" height="20" viewBox="0 0 20 20" fill="none" xmlns="http://www.w3.org/2000/svg">
<circle cx="10" cy="10" r="10" fill="#00AEFF"/>
<path d="M8.36102 13.7V13.7001L8.36752 13.6999C8.64636 13.6908 8.91332 13.5794 9.10359 13.3836L14.9369 7.38312C15.3249 6.984 15.2766 6.37222 14.8397 6.02825C14.414 5.69294 13.7731 5.73141 13.3973 6.1152L13.3968 6.11571L8.28345 11.3752L6.5565 9.82079C6.15461 9.45905 5.51247 9.45905 5.11057 9.82079C4.69648 10.1935 4.69648 10.806 5.11057 11.1787L7.61056 13.4289C7.80597 13.6048 8.06606 13.7 8.33352 13.7H8.33358H8.33363H8.33368H8.33374H8.33379H8.33385H8.3339H8.33395H8.33401H8.33406H8.33411H8.33417H8.33422H8.33428H8.33433H8.33438H8.33444H8.33449H8.33454H8.3346H8.33465H8.33471H8.33476H8.33481H8.33487H8.33492H8.33497H8.33503H8.33508H8.33513H8.33519H8.33524H8.3353H8.33535H8.3354H8.33546H8.33551H8.33556H8.33562H8.33567H8.33573H8.33578H8.33583H8.33589H8.33594H8.33599H8.33605H8.3361H8.33616H8.33621H8.33626H8.33632H8.33637H8.33642H8.33648H8.33653H8.33659H8.33664H8.33669H8.33675H8.3368H8.33685H8.33691H8.33696H8.33701H8.33707H8.33712H8.33718H8.33723H8.33728H8.33734H8.33739H8.33744H8.3375H8.33755H8.33761H8.33766H8.33771H8.33777H8.33782H8.33787H8.33793H8.33798H8.33804H8.33809H8.33814H8.3382H8.33825H8.3383H8.33836H8.33841H8.33846H8.33852H8.33857H8.33863H8.33868H8.33873H8.33879H8.33884H8.33889H8.33895H8.339H8.33906H8.33911H8.33916H8.33922H8.33927H8.33932H8.33938H8.33943H8.33949H8.33954H8.33959H8.33965H8.3397H8.33975H8.33981H8.33986H8.33992H8.33997H8.34002H8.34008H8.34013H8.34018H8.34024H8.34029H8.34034H8.3404H8.34045H8.34051H8.34056H8.34061H8.34067H8.34072H8.34077H8.34083H8.34088H8.34094H8.34099H8.34104H8.3411H8.34115H8.3412H8.34126H8.34131H8.34137H8.34142H8.34147H8.34153H8.34158H8.34163H8.34169H8.34174H8.34179H8.34185H8.3419H8.34196H8.34201H8.34206H8.34212H8.34217H8.34222H8.34228H8.34233H8.34239H8.34244H8.34249H8.34255H8.3426H8.34265H8.34271H8.34276H8.34282H8.34287H8.34292H8.34298H8.34303H8.34308H8.34314H8.34319H8.34325H8.3433H8.34335H8.34341H8.34346H8.34351H8.34357H8.34362H8.34367H8.34373H8.34378H8.34384H8.34389H8.34394H8.344H8.34405H8.3441H8.34416H8.34421H8.34427H8.34432H8.34437H8.34443H8.34448H8.34453H8.34459H8.34464H8.3447H8.34475H8.3448H8.34486H8.34491H8.34496H8.34502H8.34507H8.34512H8.34518H8.34523H8.34529H8.34534H8.34539H8.34545H8.3455H8.34555H8.34561H8.34566H8.34572H8.34577H8.34582H8.34588H8.34593H8.34598H8.34604H8.34609H8.34615H8.3462H8.34625H8.34631H8.34636H8.34641H8.34647H8.34652H8.34658H8.34663H8.34668H8.34674H8.34679H8.34684H8.3469H8.34695H8.347H8.34706H8.34711H8.34717H8.34722H8.34727H8.34733H8.34738H8.34743H8.34749H8.34754H8.3476H8.34765H8.3477H8.34776H8.34781H8.34786H8.34792H8.34797H8.34803H8.34808H8.34813H8.34819H8.34824H8.34829H8.34835H8.3484H8.34846H8.34851H8.34856H8.34862H8.34867H8.34872H8.34878H8.34883H8.34888H8.34894H8.34899H8.34905H8.3491H8.34915H8.34921H8.34926H8.34931H8.34937H8.34942H8.34948H8.34953H8.34958H8.34964H8.34969H8.34974H8.3498H8.34985H8.34991H8.34996H8.35001H8.35007H8.35012H8.35017H8.35023H8.35028H8.35033H8.35039H8.35044H8.3505H8.35055H8.3506H8.35066H8.35071H8.35076H8.35082H8.35087H8.35093H8.35098H8.35103H8.35109H8.35114H8.35119H8.35125H8.3513H8.35136H8.35141H8.35146H8.35152H8.35157H8.35162H8.35168H8.35173H8.35179H8.35184H8.35189H8.35195H8.352H8.35205H8.35211H8.35216H8.35221H8.35227H8.35232H8.35238H8.35243H8.35248H8.35254H8.35259H8.35264H8.3527H8.35275H8.35281H8.35286H8.35291H8.35297H8.35302H8.35307H8.35313H8.35318H8.35324H8.35329H8.35334H8.3534H8.35345H8.3535H8.35356H8.35361H8.35367H8.35372H8.35377H8.35383H8.35388H8.35393H8.35399H8.35404H8.35409H8.35415H8.3542H8.35426H8.35431H8.35436H8.35442H8.35447H8.35452H8.35458H8.35463H8.35469H8.35474H8.35479H8.35485H8.3549H8.35495H8.35501H8.35506H8.35512H8.35517H8.35522H8.35528H8.35533H8.35538H8.35544H8.35549H8.35554H8.3556H8.35565H8.35571H8.35576H8.35581H8.35587H8.35592H8.35597H8.35603H8.35608H8.35614H8.35619H8.35624H8.3563H8.35635H8.3564H8.35646H8.35651H8.35657H8.35662H8.35667H8.35673H8.35678H8.35683H8.35689H8.35694H8.357H8.35705H8.3571H8.35716H8.35721H8.35726H8.35732H8.35737H8.35742H8.35748H8.35753H8.35759H8.35764H8.35769H8.35775H8.3578H8.35785H8.35791H8.35796H8.35802H8.35807H8.35812H8.35818H8.35823H8.35828H8.35834H8.35839H8.35845H8.3585H8.35855H8.35861H8.35866H8.35871H8.35877H8.35882H8.35888H8.35893H8.35898H8.35904H8.35909H8.35914H8.3592H8.35925H8.3593H8.35936H8.35941H8.35947H8.35952H8.35957H8.35963H8.35968H8.35973H8.35979H8.35984H8.3599H8.35995H8.36H8.36006H8.36011H8.36016H8.36022H8.36027H8.36033H8.36038H8.36043H8.36049H8.36054H8.36059H8.36065H8.3607H8.36075H8.36081H8.36086H8.36092H8.36097H8.36102Z" fill="white" stroke="white" stroke-width="0.4"/>
</svg>
