<svg width="14" height="15" viewBox="0 0 14 15" fill="none" xmlns="http://www.w3.org/2000/svg">
<path d="M4.90115 14.7761C4.25867 14.773 3.62323 14.6422 3.03181 14.3912C2.44038 14.1402 1.90478 13.7741 1.45619 13.3141C1.01096 12.8921 0.653315 12.3865 0.403713 11.8262C0.154112 11.2658 0.0174562 10.6617 0.00156581 10.0485C-0.0143246 9.43528 0.0908625 8.82494 0.311108 8.25241C0.531353 7.67989 0.862333 7.15641 1.28511 6.71194L7.00856 0.934051C7.3142 0.628964 7.67851 0.388983 8.07947 0.228596C8.48044 0.06821 8.90975 -0.00925437 9.34148 0.000880296C9.80396 0.00245513 10.2615 0.096094 10.6874 0.276336C11.1133 0.456578 11.4991 0.719816 11.8222 1.0507C12.4653 1.66989 12.8382 2.51773 12.8601 3.4102C12.8819 4.30267 12.5509 5.16774 11.9388 5.81765L6.18426 11.5955C5.99994 11.7811 5.78061 11.9282 5.53899 12.0283C5.29736 12.1284 5.03827 12.1796 4.77672 12.1788C4.49419 12.1791 4.21444 12.1229 3.95399 12.0134C3.69355 11.9039 3.45768 11.7433 3.26032 11.5411C2.86584 11.1592 2.63803 10.637 2.62638 10.088C2.61473 9.53908 2.82019 9.00771 3.19811 8.60938L8.50941 3.27476C8.66057 3.17436 8.84207 3.13 9.0225 3.14933C9.20293 3.16867 9.37091 3.2505 9.49736 3.38064C9.62381 3.51078 9.70077 3.68105 9.71491 3.86196C9.72905 4.04287 9.67948 4.22302 9.57478 4.37123L4.26348 9.70586C4.17491 9.81256 4.1318 9.94978 4.14344 10.088C4.15508 10.2261 4.22053 10.3542 4.32569 10.4446C4.43511 10.5548 4.58263 10.6188 4.73784 10.6235C4.79534 10.6243 4.85242 10.6137 4.90581 10.5924C4.9592 10.571 5.00783 10.5393 5.0489 10.4991L10.7957 4.72117C11.1183 4.36282 11.2868 3.89192 11.265 3.41026C11.2432 2.9286 11.0327 2.47488 10.679 2.14717C10.3505 1.80613 9.90384 1.60396 9.43082 1.58226C8.95781 1.56056 8.49447 1.72099 8.13614 2.03053L2.38936 7.77731C2.10991 8.07745 1.89257 8.4299 1.74985 8.81436C1.60713 9.19883 1.54184 9.60772 1.55774 10.0175C1.57364 10.4273 1.67041 10.8299 1.8425 11.2022C2.01458 11.5744 2.25858 11.9089 2.56044 12.1865C2.86316 12.5003 3.22538 12.7507 3.62594 12.9229C4.0265 13.0952 4.45736 13.1859 4.89337 13.1897C5.2693 13.1927 5.64212 13.1215 5.99043 12.98C6.33874 12.8386 6.65567 12.6297 6.92302 12.3654L12.6698 6.58751C12.7418 6.51501 12.8274 6.45739 12.9216 6.41795C13.0159 6.37852 13.117 6.35804 13.2192 6.35768C13.3213 6.35731 13.4226 6.37708 13.5171 6.41585C13.6117 6.45462 13.6977 6.51163 13.7702 6.58362C13.8427 6.65562 13.9003 6.74119 13.9397 6.83545C13.9792 6.92972 13.9996 7.03082 14 7.133C14.0004 7.23518 13.9806 7.33643 13.9418 7.43097C13.9031 7.52551 13.846 7.61148 13.774 7.68399L8.02727 13.4619C7.61925 13.8771 7.13277 14.2071 6.59611 14.4327C6.05945 14.6583 5.4833 14.7751 4.90115 14.7761V14.7761Z" fill="#646E78"/>
</svg>
