<svg width="18" height="14" viewBox="0 0 18 14" fill="none" xmlns="http://www.w3.org/2000/svg">
<path d="M11.5442 8.45066L14.9888 11.9H3.06578L6.40189 8.44951L6.47146 8.37756L6.39945 8.30805L5.67945 7.61305L5.60755 7.54364L5.5381 7.6155L2.1 11.1726V3.0006L8.14446 9.01588L8.1445 9.01592C8.3506 9.2208 8.62939 9.33579 8.92 9.33579C9.2106 9.33579 9.4894 9.2208 9.6955 9.01592L9.69551 9.0159L15.9 2.84548V11.1136L12.3907 7.60429L12.32 7.53358L12.2493 7.60429L11.5443 8.30929L11.4736 8.37995L11.5442 8.45066ZM16 0.9H2C1.70826 0.9 1.42847 1.01589 1.22218 1.22218C1.01589 1.42847 0.9 1.70826 0.9 2V12C0.9 12.2917 1.01589 12.5715 1.22218 12.7778C1.42847 12.9841 1.70826 13.1 2 13.1H16C16.2917 13.1 16.5715 12.9841 16.7778 12.7778C16.9841 12.5715 17.1 12.2917 17.1 12V2C17.1 1.70826 16.9841 1.42847 16.7778 1.22218C16.5715 1.01589 16.2917 0.9 16 0.9ZM8.92003 8.09394L2.89724 2.1H14.9476L8.92003 8.09394Z" fill="#2F4155" stroke="#2F4155" stroke-width="0.2"/>
</svg>
