<svg width="107" height="13" viewBox="0 0 107 13" fill="none" xmlns="http://www.w3.org/2000/svg">
<path d="M1 6.679L2.69203 2.46642L7.20503 1L10.5707 2.78382L13.2939 5.69023L15.9639 5.82423L15.7148 4.08622L16.5104 2.0284L18.2907 3.98122H22.381L19.8057 6.69821H17.6782L13.0302 10.3113L14.3372 11.5451L12.3506 12.3563L9.75647 11.3872L6.69084 11.2666L3.43922 10.1854L1 6.679Z" stroke="#186C97" stroke-width="0.8" stroke-miterlimit="10"/>
<path d="M1 6.6792L5.24861 7.40323L8.08313 9.02423L9.75647 11.3874" stroke="#186C97" stroke-width="0.8" stroke-miterlimit="10"/>
<path d="M5.24902 7.4029L7.84335 4.66188L10.5712 2.78369" stroke="#186C97" stroke-width="0.8" stroke-miterlimit="10"/>
<path d="M11.6219 6.52774L8.03405 4.48072L3.5 3L8.08312 9.02392L11.572 9.26189M11.6219 6.52774L11.572 9.26189M11.6219 6.52774L13.2939 5.69013M11.572 9.26189L13.0302 10.3112L17.6782 6.69811L17.2182 5.98163M11.572 9.26189L17.2182 5.98163M17.2182 5.98163L15.9639 5.82412M17.2182 5.98163L18.2907 3.98111" stroke="#186C97" stroke-width="0.8" stroke-miterlimit="10"/>
<mask id="path-5-outside-1" maskUnits="userSpaceOnUse" x="24" y="1" width="83" height="11" fill="black">
<rect fill="white" x="24" y="1" width="83" height="11"/>
<path d="M29.3955 9.51299L26.1842 2.18866L26.1549 2.12309H25V10.8763H25.9587V6.9967L25.8989 3.7499L29.0387 10.8107L29.0679 10.8763H29.7289L32.9045 3.71402L32.8506 6.99794V10.8763H33.8092V2.12309H32.6478L29.3955 9.51299ZM40.1103 2C39.0295 2 38.1553 2.35753 37.5112 3.0633C36.8717 3.76474 36.5474 4.68763 36.5474 5.80783V7.19773C36.5474 8.32227 36.873 9.24577 37.5151 9.94288C38.1605 10.6443 39.036 11 40.1168 11C41.2133 11 42.1011 10.6443 42.7556 9.94351C43.4061 9.24577 43.7363 8.32227 43.7363 7.19773V5.80783C43.7363 4.68825 43.4055 3.76474 42.753 3.06206C42.0952 2.35691 41.2068 2 40.1103 2V2ZM42.777 5.80103V7.20454C42.777 8.11072 42.5398 8.84309 42.0725 9.38309C41.6104 9.91628 40.9526 10.1872 40.1168 10.1872C39.2901 10.1872 38.6649 9.92371 38.2047 9.38185C37.7452 8.84062 37.5119 8.10825 37.5119 7.20515V5.80165C37.5119 4.90659 37.7439 4.17855 38.2021 3.6367C38.6538 3.10165 39.296 2.83072 40.111 2.83072C40.9422 2.83072 41.6 3.10227 42.0673 3.63794C42.5378 4.17918 42.777 4.90721 42.777 5.80103ZM51.0838 6.27732C51.3897 6.14407 51.6566 5.94145 51.8611 5.68721C52.1361 5.34515 52.2758 4.93814 52.2758 4.47794C52.2758 3.69484 51.9983 3.09794 51.4517 2.70515C50.9142 2.31917 50.1583 2.12309 49.2055 2.12309H46.4738V10.8763H49.6858C50.5795 10.8763 51.3054 10.661 51.8436 10.2367C52.3876 9.8068 52.6638 9.18762 52.6638 8.39587C52.6638 7.85711 52.4831 7.37464 52.1263 6.96144C51.8547 6.6432 51.4929 6.40577 51.0838 6.27732V6.27732ZM47.4318 5.95258V2.93588H49.2048C49.899 2.93588 50.4319 3.06577 50.7887 3.32186C51.1397 3.57423 51.3106 3.94412 51.3106 4.45319C51.3106 4.95113 51.1501 5.3167 50.8199 5.56907C50.4872 5.82391 50.0036 5.95258 49.3842 5.95258H47.4318V5.95258ZM51.6986 8.40577C51.6986 8.93588 51.5264 9.33422 51.1709 9.62494C50.816 9.91628 50.3162 10.0635 49.6851 10.0635H47.4318V6.76536H49.8028C50.4222 6.76536 50.8979 6.92 51.217 7.22495C51.5368 7.52989 51.6986 7.92701 51.6986 8.40577V8.40577ZM55.4761 2.12309H56.4406V10.8763H55.4761V2.12309ZM60.7165 2.12309H59.7513V10.8763H65.1529V10.0635H60.7165V2.12309ZM72.6291 8.01423C72.6291 8.7101 72.4075 9.25072 71.9701 9.62247C71.5301 9.9967 70.9477 10.1866 70.24 10.1866C69.5452 10.1866 68.9758 9.99608 68.5475 9.62C68.1218 9.24701 67.9061 8.70639 67.9061 8.01423V2.12309H66.9416V8.01855C66.9416 8.97299 67.2509 9.71773 67.8606 10.2311C68.4669 10.7408 69.267 10.9994 70.24 10.9994C71.2246 10.9994 72.0364 10.7421 72.6525 10.2342C73.2732 9.72206 73.5878 8.97732 73.5878 8.01793V2.12247H72.6291V8.01423V8.01423ZM82.4516 9.25753L77.4919 2.12309H76.5788V10.8763H77.5433V3.7301L82.5029 10.8763H83.4102V2.12309H82.4516V9.25753ZM86.721 2.12309H87.6855V10.8763H86.721V2.12309ZM89.9187 2.93588H93.0059V10.8763H93.9704V2.93588H97.0575V2.12309H89.9187V2.93588ZM104.883 2.12309L102.17 6.75361L99.4753 2.12309H98.3581L101.687 7.63629V10.8763H102.646V7.67773L106 2.12309H104.883Z"/>
</mask>
<path d="M29.3955 9.51299L26.1842 2.18866L26.1549 2.12309H25V10.8763H25.9587V6.9967L25.8989 3.7499L29.0387 10.8107L29.0679 10.8763H29.7289L32.9045 3.71402L32.8506 6.99794V10.8763H33.8092V2.12309H32.6478L29.3955 9.51299ZM40.1103 2C39.0295 2 38.1553 2.35753 37.5112 3.0633C36.8717 3.76474 36.5474 4.68763 36.5474 5.80783V7.19773C36.5474 8.32227 36.873 9.24577 37.5151 9.94288C38.1605 10.6443 39.036 11 40.1168 11C41.2133 11 42.1011 10.6443 42.7556 9.94351C43.4061 9.24577 43.7363 8.32227 43.7363 7.19773V5.80783C43.7363 4.68825 43.4055 3.76474 42.753 3.06206C42.0952 2.35691 41.2068 2 40.1103 2V2ZM42.777 5.80103V7.20454C42.777 8.11072 42.5398 8.84309 42.0725 9.38309C41.6104 9.91628 40.9526 10.1872 40.1168 10.1872C39.2901 10.1872 38.6649 9.92371 38.2047 9.38185C37.7452 8.84062 37.5119 8.10825 37.5119 7.20515V5.80165C37.5119 4.90659 37.7439 4.17855 38.2021 3.6367C38.6538 3.10165 39.296 2.83072 40.111 2.83072C40.9422 2.83072 41.6 3.10227 42.0673 3.63794C42.5378 4.17918 42.777 4.90721 42.777 5.80103ZM51.0838 6.27732C51.3897 6.14407 51.6566 5.94145 51.8611 5.68721C52.1361 5.34515 52.2758 4.93814 52.2758 4.47794C52.2758 3.69484 51.9983 3.09794 51.4517 2.70515C50.9142 2.31917 50.1583 2.12309 49.2055 2.12309H46.4738V10.8763H49.6858C50.5795 10.8763 51.3054 10.661 51.8436 10.2367C52.3876 9.8068 52.6638 9.18762 52.6638 8.39587C52.6638 7.85711 52.4831 7.37464 52.1263 6.96144C51.8547 6.6432 51.4929 6.40577 51.0838 6.27732V6.27732ZM47.4318 5.95258V2.93588H49.2048C49.899 2.93588 50.4319 3.06577 50.7887 3.32186C51.1397 3.57423 51.3106 3.94412 51.3106 4.45319C51.3106 4.95113 51.1501 5.3167 50.8199 5.56907C50.4872 5.82391 50.0036 5.95258 49.3842 5.95258H47.4318V5.95258ZM51.6986 8.40577C51.6986 8.93588 51.5264 9.33422 51.1709 9.62494C50.816 9.91628 50.3162 10.0635 49.6851 10.0635H47.4318V6.76536H49.8028C50.4222 6.76536 50.8979 6.92 51.217 7.22495C51.5368 7.52989 51.6986 7.92701 51.6986 8.40577V8.40577ZM55.4761 2.12309H56.4406V10.8763H55.4761V2.12309ZM60.7165 2.12309H59.7513V10.8763H65.1529V10.0635H60.7165V2.12309ZM72.6291 8.01423C72.6291 8.7101 72.4075 9.25072 71.9701 9.62247C71.5301 9.9967 70.9477 10.1866 70.24 10.1866C69.5452 10.1866 68.9758 9.99608 68.5475 9.62C68.1218 9.24701 67.9061 8.70639 67.9061 8.01423V2.12309H66.9416V8.01855C66.9416 8.97299 67.2509 9.71773 67.8606 10.2311C68.4669 10.7408 69.267 10.9994 70.24 10.9994C71.2246 10.9994 72.0364 10.7421 72.6525 10.2342C73.2732 9.72206 73.5878 8.97732 73.5878 8.01793V2.12247H72.6291V8.01423V8.01423ZM82.4516 9.25753L77.4919 2.12309H76.5788V10.8763H77.5433V3.7301L82.5029 10.8763H83.4102V2.12309H82.4516V9.25753ZM86.721 2.12309H87.6855V10.8763H86.721V2.12309ZM89.9187 2.93588H93.0059V10.8763H93.9704V2.93588H97.0575V2.12309H89.9187V2.93588ZM104.883 2.12309L102.17 6.75361L99.4753 2.12309H98.3581L101.687 7.63629V10.8763H102.646V7.67773L106 2.12309H104.883Z" fill="#186C97"/>
<path d="M29.3955 9.51299L26.1842 2.18866L26.1549 2.12309H25V10.8763H25.9587V6.9967L25.8989 3.7499L29.0387 10.8107L29.0679 10.8763H29.7289L32.9045 3.71402L32.8506 6.99794V10.8763H33.8092V2.12309H32.6478L29.3955 9.51299ZM40.1103 2C39.0295 2 38.1553 2.35753 37.5112 3.0633C36.8717 3.76474 36.5474 4.68763 36.5474 5.80783V7.19773C36.5474 8.32227 36.873 9.24577 37.5151 9.94288C38.1605 10.6443 39.036 11 40.1168 11C41.2133 11 42.1011 10.6443 42.7556 9.94351C43.4061 9.24577 43.7363 8.32227 43.7363 7.19773V5.80783C43.7363 4.68825 43.4055 3.76474 42.753 3.06206C42.0952 2.35691 41.2068 2 40.1103 2V2ZM42.777 5.80103V7.20454C42.777 8.11072 42.5398 8.84309 42.0725 9.38309C41.6104 9.91628 40.9526 10.1872 40.1168 10.1872C39.2901 10.1872 38.6649 9.92371 38.2047 9.38185C37.7452 8.84062 37.5119 8.10825 37.5119 7.20515V5.80165C37.5119 4.90659 37.7439 4.17855 38.2021 3.6367C38.6538 3.10165 39.296 2.83072 40.111 2.83072C40.9422 2.83072 41.6 3.10227 42.0673 3.63794C42.5378 4.17918 42.777 4.90721 42.777 5.80103ZM51.0838 6.27732C51.3897 6.14407 51.6566 5.94145 51.8611 5.68721C52.1361 5.34515 52.2758 4.93814 52.2758 4.47794C52.2758 3.69484 51.9983 3.09794 51.4517 2.70515C50.9142 2.31917 50.1583 2.12309 49.2055 2.12309H46.4738V10.8763H49.6858C50.5795 10.8763 51.3054 10.661 51.8436 10.2367C52.3876 9.8068 52.6638 9.18762 52.6638 8.39587C52.6638 7.85711 52.4831 7.37464 52.1263 6.96144C51.8547 6.6432 51.4929 6.40577 51.0838 6.27732V6.27732ZM47.4318 5.95258V2.93588H49.2048C49.899 2.93588 50.4319 3.06577 50.7887 3.32186C51.1397 3.57423 51.3106 3.94412 51.3106 4.45319C51.3106 4.95113 51.1501 5.3167 50.8199 5.56907C50.4872 5.82391 50.0036 5.95258 49.3842 5.95258H47.4318V5.95258ZM51.6986 8.40577C51.6986 8.93588 51.5264 9.33422 51.1709 9.62494C50.816 9.91628 50.3162 10.0635 49.6851 10.0635H47.4318V6.76536H49.8028C50.4222 6.76536 50.8979 6.92 51.217 7.22495C51.5368 7.52989 51.6986 7.92701 51.6986 8.40577V8.40577ZM55.4761 2.12309H56.4406V10.8763H55.4761V2.12309ZM60.7165 2.12309H59.7513V10.8763H65.1529V10.0635H60.7165V2.12309ZM72.6291 8.01423C72.6291 8.7101 72.4075 9.25072 71.9701 9.62247C71.5301 9.9967 70.9477 10.1866 70.24 10.1866C69.5452 10.1866 68.9758 9.99608 68.5475 9.62C68.1218 9.24701 67.9061 8.70639 67.9061 8.01423V2.12309H66.9416V8.01855C66.9416 8.97299 67.2509 9.71773 67.8606 10.2311C68.4669 10.7408 69.267 10.9994 70.24 10.9994C71.2246 10.9994 72.0364 10.7421 72.6525 10.2342C73.2732 9.72206 73.5878 8.97732 73.5878 8.01793V2.12247H72.6291V8.01423V8.01423ZM82.4516 9.25753L77.4919 2.12309H76.5788V10.8763H77.5433V3.7301L82.5029 10.8763H83.4102V2.12309H82.4516V9.25753ZM86.721 2.12309H87.6855V10.8763H86.721V2.12309ZM89.9187 2.93588H93.0059V10.8763H93.9704V2.93588H97.0575V2.12309H89.9187V2.93588ZM104.883 2.12309L102.17 6.75361L99.4753 2.12309H98.3581L101.687 7.63629V10.8763H102.646V7.67773L106 2.12309H104.883Z" stroke="#186C97" stroke-width="0.5" mask="url(#path-5-outside-1)"/>
</svg>
