<svg width="12" height="9" viewBox="0 0 12 9" fill="none" xmlns="http://www.w3.org/2000/svg">
<path d="M4.36102 8.7V8.70011L4.36752 8.69989C4.64636 8.69083 4.91332 8.57937 5.10359 8.38364L10.9369 2.38312C11.3249 1.984 11.2766 1.37222 10.8397 1.02825C10.414 0.692939 9.77307 0.731405 9.39726 1.1152L9.39676 1.11571L4.28345 6.37519L2.5565 4.82079C2.15461 4.45905 1.51247 4.45905 1.11057 4.82079C0.696475 5.19351 0.696475 5.80597 1.11057 6.17869L3.61056 8.42888C3.80597 8.60477 4.06606 8.7 4.33352 8.7H4.33358H4.33363H4.33368H4.33374H4.33379H4.33385H4.3339H4.33395H4.33401H4.33406H4.33411H4.33417H4.33422H4.33428H4.33433H4.33438H4.33444H4.33449H4.33454H4.3346H4.33465H4.33471H4.33476H4.33481H4.33487H4.33492H4.33497H4.33503H4.33508H4.33513H4.33519H4.33524H4.3353H4.33535H4.3354H4.33546H4.33551H4.33556H4.33562H4.33567H4.33573H4.33578H4.33583H4.33589H4.33594H4.33599H4.33605H4.3361H4.33616H4.33621H4.33626H4.33632H4.33637H4.33642H4.33648H4.33653H4.33659H4.33664H4.33669H4.33675H4.3368H4.33685H4.33691H4.33696H4.33701H4.33707H4.33712H4.33718H4.33723H4.33728H4.33734H4.33739H4.33744H4.3375H4.33755H4.33761H4.33766H4.33771H4.33777H4.33782H4.33787H4.33793H4.33798H4.33804H4.33809H4.33814H4.3382H4.33825H4.3383H4.33836H4.33841H4.33846H4.33852H4.33857H4.33863H4.33868H4.33873H4.33879H4.33884H4.33889H4.33895H4.339H4.33906H4.33911H4.33916H4.33922H4.33927H4.33932H4.33938H4.33943H4.33949H4.33954H4.33959H4.33965H4.3397H4.33975H4.33981H4.33986H4.33992H4.33997H4.34002H4.34008H4.34013H4.34018H4.34024H4.34029H4.34034H4.3404H4.34045H4.34051H4.34056H4.34061H4.34067H4.34072H4.34077H4.34083H4.34088H4.34094H4.34099H4.34104H4.3411H4.34115H4.3412H4.34126H4.34131H4.34137H4.34142H4.34147H4.34153H4.34158H4.34163H4.34169H4.34174H4.34179H4.34185H4.3419H4.34196H4.34201H4.34206H4.34212H4.34217H4.34222H4.34228H4.34233H4.34239H4.34244H4.34249H4.34255H4.3426H4.34265H4.34271H4.34276H4.34282H4.34287H4.34292H4.34298H4.34303H4.34308H4.34314H4.34319H4.34325H4.3433H4.34335H4.34341H4.34346H4.34351H4.34357H4.34362H4.34367H4.34373H4.34378H4.34384H4.34389H4.34394H4.344H4.34405H4.3441H4.34416H4.34421H4.34427H4.34432H4.34437H4.34443H4.34448H4.34453H4.34459H4.34464H4.3447H4.34475H4.3448H4.34486H4.34491H4.34496H4.34502H4.34507H4.34512H4.34518H4.34523H4.34529H4.34534H4.34539H4.34545H4.3455H4.34555H4.34561H4.34566H4.34572H4.34577H4.34582H4.34588H4.34593H4.34598H4.34604H4.34609H4.34615H4.3462H4.34625H4.34631H4.34636H4.34641H4.34647H4.34652H4.34658H4.34663H4.34668H4.34674H4.34679H4.34684H4.3469H4.34695H4.347H4.34706H4.34711H4.34717H4.34722H4.34727H4.34733H4.34738H4.34743H4.34749H4.34754H4.3476H4.34765H4.3477H4.34776H4.34781H4.34786H4.34792H4.34797H4.34803H4.34808H4.34813H4.34819H4.34824H4.34829H4.34835H4.3484H4.34846H4.34851H4.34856H4.34862H4.34867H4.34872H4.34878H4.34883H4.34888H4.34894H4.34899H4.34905H4.3491H4.34915H4.34921H4.34926H4.34931H4.34937H4.34942H4.34948H4.34953H4.34958H4.34964H4.34969H4.34974H4.3498H4.34985H4.34991H4.34996H4.35001H4.35007H4.35012H4.35017H4.35023H4.35028H4.35033H4.35039H4.35044H4.3505H4.35055H4.3506H4.35066H4.35071H4.35076H4.35082H4.35087H4.35093H4.35098H4.35103H4.35109H4.35114H4.35119H4.35125H4.3513H4.35136H4.35141H4.35146H4.35152H4.35157H4.35162H4.35168H4.35173H4.35179H4.35184H4.35189H4.35195H4.352H4.35205H4.35211H4.35216H4.35221H4.35227H4.35232H4.35238H4.35243H4.35248H4.35254H4.35259H4.35264H4.3527H4.35275H4.35281H4.35286H4.35291H4.35297H4.35302H4.35307H4.35313H4.35318H4.35324H4.35329H4.35334H4.3534H4.35345H4.3535H4.35356H4.35361H4.35367H4.35372H4.35377H4.35383H4.35388H4.35393H4.35399H4.35404H4.35409H4.35415H4.3542H4.35426H4.35431H4.35436H4.35442H4.35447H4.35452H4.35458H4.35463H4.35469H4.35474H4.35479H4.35485H4.3549H4.35495H4.35501H4.35506H4.35512H4.35517H4.35522H4.35528H4.35533H4.35538H4.35544H4.35549H4.35554H4.3556H4.35565H4.35571H4.35576H4.35581H4.35587H4.35592H4.35597H4.35603H4.35608H4.35614H4.35619H4.35624H4.3563H4.35635H4.3564H4.35646H4.35651H4.35657H4.35662H4.35667H4.35673H4.35678H4.35683H4.35689H4.35694H4.357H4.35705H4.3571H4.35716H4.35721H4.35726H4.35732H4.35737H4.35742H4.35748H4.35753H4.35759H4.35764H4.35769H4.35775H4.3578H4.35785H4.35791H4.35796H4.35802H4.35807H4.35812H4.35818H4.35823H4.35828H4.35834H4.35839H4.35845H4.3585H4.35855H4.35861H4.35866H4.35871H4.35877H4.35882H4.35888H4.35893H4.35898H4.35904H4.35909H4.35914H4.3592H4.35925H4.3593H4.35936H4.35941H4.35947H4.35952H4.35957H4.35963H4.35968H4.35973H4.35979H4.35984H4.3599H4.35995H4.36H4.36006H4.36011H4.36016H4.36022H4.36027H4.36033H4.36038H4.36043H4.36049H4.36054H4.36059H4.36065H4.3607H4.36075H4.36081H4.36086H4.36092H4.36097H4.36102Z" fill="#83BB26" stroke="#83BB26" stroke-width="0.4"/>
</svg>
