<svg width="29" height="21" viewBox="0 0 29 21" fill="none" xmlns="http://www.w3.org/2000/svg">
<path d="M15.1096 7.55465C15.1096 6.06045 14.6665 4.59982 13.8363 3.35746C13.0062 2.1151 11.8263 1.14681 10.4458 0.575029C9.06534 0.00324981 7.54632 -0.146336 6.08084 0.145189C4.61536 0.436713 3.26924 1.15625 2.2127 2.21282C1.15615 3.26939 0.436644 4.61553 0.145154 6.08102C-0.146336 7.5465 0.00328507 9.06551 0.575097 10.446C1.14691 11.8264 2.11523 13.0063 3.35761 13.8364C4.59999 14.6666 6.06063 15.1096 7.55482 15.1096C9.5578 15.1073 11.4781 14.3106 12.8944 12.8942C14.3107 11.4779 15.1073 9.55762 15.1096 7.55465ZM1.75897 7.55465C1.75901 6.40833 2.09896 5.28777 2.73585 4.33465C3.37274 3.38154 4.27795 2.6387 5.33702 2.20005C6.39609 1.7614 7.56145 1.64665 8.68573 1.87031C9.81002 2.09397 10.8427 2.646 11.6533 3.45658C12.4638 4.26717 13.0158 5.2999 13.2394 6.4242C13.4631 7.54849 13.3483 8.71385 12.9096 9.7729C12.4709 10.832 11.728 11.7371 10.7749 12.374C9.82172 13.0108 8.70114 13.3507 7.55482 13.3507C6.01816 13.349 4.54494 12.7378 3.45838 11.6512C2.37181 10.5646 1.76065 9.09131 1.75897 7.55465ZM8.10038 8.24432L5.46717 10.3282C5.37675 10.4012 5.27274 10.4556 5.16116 10.4882C5.04958 10.5208 4.93265 10.531 4.81712 10.5181C4.70159 10.5053 4.58975 10.4696 4.48808 10.4133C4.38641 10.3569 4.29693 10.2809 4.2248 10.1898C4.15267 10.0986 4.09932 9.99406 4.06785 9.88216C4.03639 9.77025 4.02741 9.65322 4.04146 9.53782C4.0555 9.42243 4.09228 9.31096 4.14968 9.20987C4.20707 9.10878 4.28393 9.02007 4.37582 8.94888L6.67537 7.12922V4.79978C6.67537 4.56653 6.76802 4.34284 6.93295 4.17791C7.09788 4.01298 7.32158 3.92032 7.55482 3.92032C7.78807 3.92032 8.01176 4.01298 8.17669 4.17791C8.34162 4.34284 8.43428 4.56653 8.43428 4.79978V7.55465C8.43426 7.68735 8.40421 7.81832 8.34639 7.93776C8.28856 8.05719 8.20446 8.162 8.10038 8.24432ZM15.9683 1.02551C15.9683 0.792261 16.0609 0.568568 16.2259 0.403638C16.3908 0.238708 16.6145 0.146051 16.8477 0.146051H27.9465C28.1797 0.146051 28.4034 0.238708 28.5683 0.403638C28.7333 0.568568 28.8259 0.792261 28.8259 1.02551C28.8259 1.25875 28.7333 1.48245 28.5683 1.64738C28.4034 1.81231 28.1797 1.90496 27.9465 1.90496H16.8477C16.6145 1.90496 16.3908 1.81231 16.2259 1.64738C16.0609 1.48245 15.9683 1.25875 15.9683 1.02551ZM28.8259 7.17584C28.8259 7.40908 28.7333 7.63277 28.5683 7.7977C28.4034 7.96264 28.1797 8.05529 27.9465 8.05529H18.9115C18.6783 8.05529 18.4546 7.96264 18.2897 7.7977C18.1247 7.63277 18.0321 7.40908 18.0321 7.17584C18.0321 6.94259 18.1247 6.7189 18.2897 6.55397C18.4546 6.38904 18.6783 6.29638 18.9115 6.29638H27.9465C28.1797 6.29638 28.4034 6.38904 28.5683 6.55397C28.7333 6.7189 28.8259 6.94259 28.8259 7.17584ZM28.8259 13.3203C28.8259 13.5535 28.7333 13.7772 28.5683 13.9422C28.4034 14.1071 28.1797 14.1998 27.9465 14.1998H17.3461C17.1129 14.1998 16.8892 14.1071 16.7242 13.9422C16.5593 13.7772 16.4666 13.5535 16.4666 13.3203C16.4666 13.0871 16.5593 12.8634 16.7242 12.6984C16.8892 12.5335 17.1129 12.4408 17.3461 12.4408H27.9465C28.1797 12.4408 28.4034 12.5335 28.5683 12.6984C28.7333 12.8634 28.8259 13.0871 28.8259 13.3203ZM28.829 19.4648C28.829 19.698 28.7364 19.9217 28.5714 20.0866C28.4065 20.2516 28.1828 20.3442 27.9496 20.3442H3.86199C3.62874 20.3442 3.40505 20.2516 3.24012 20.0866C3.07519 19.9217 2.98253 19.698 2.98253 19.4648C2.98253 19.2315 3.07519 19.0078 3.24012 18.8429C3.40505 18.678 3.62874 18.5853 3.86199 18.5853H27.9496C28.1829 18.5853 28.4066 18.678 28.5715 18.8429C28.7364 19.0078 28.8291 19.2315 28.8291 19.4648H28.829Z" fill="#36A0DD"/>
</svg>
