<svg width="30" height="32" viewBox="0 0 30 32" fill="none" xmlns="http://www.w3.org/2000/svg">
<path d="M28.865 24.2679L23.6309 17.5388L27.1475 14.0223C27.3837 13.786 27.4762 13.4419 27.391 13.1186C27.305 12.7959 27.0541 12.5427 26.731 12.4549L8.68408 7.533C8.35989 7.44515 8.01292 7.53675 7.77489 7.77478C7.53686 8.01281 7.44433 8.35978 7.5332 8.68434L12.4551 26.7307C12.543 27.0539 12.7957 27.3048 13.1188 27.3908C13.442 27.4769 13.7872 27.3845 14.0225 27.1473L17.539 23.6307L24.2681 28.8648C24.4384 28.9976 24.6416 29.0626 24.844 29.0626C25.0847 29.0626 25.3246 28.9702 25.5068 28.7879L28.788 25.5067C29.1222 25.1725 29.1551 24.6415 28.865 24.2679ZM24.7661 26.8772L18.037 21.6431C17.8668 21.5104 17.6635 21.4454 17.4611 21.4454C17.2204 21.4454 16.9805 21.5378 16.7983 21.7201L13.8393 24.6791L9.77345 9.7739L24.6791 13.8388L21.7202 16.7982C21.3861 17.1323 21.3531 17.6634 21.6433 18.0369L26.8774 24.766L24.7661 26.8772Z" fill="#36A0DD"/>
<path d="M4.17852 2.85301C3.81233 2.48682 3.21908 2.48682 2.8528 2.85301C2.48652 3.2192 2.48661 3.81245 2.8528 4.17873L5.31374 6.63967C5.49683 6.82276 5.73674 6.91435 5.97655 6.91435C6.21636 6.91435 6.45627 6.82276 6.63936 6.63967C7.00555 6.27348 7.00555 5.68023 6.63936 5.31395L4.17852 2.85301Z" fill="#36A0DD"/>
<path d="M12.3551 6.89588C12.4174 6.90825 12.4787 6.91416 12.5401 6.91416C12.9777 6.91416 13.3696 6.6061 13.4584 6.16069L14.2787 2.05913C14.3803 1.55147 14.0507 1.0575 13.5435 0.955878C13.0354 0.856128 12.5419 1.18341 12.4403 1.69107L11.62 5.79263C11.5183 6.30028 11.848 6.79425 12.3551 6.89588Z" fill="#36A0DD"/>
<path d="M5.79265 11.6199L1.69109 12.4402C1.1839 12.5419 0.854274 13.0358 0.955899 13.5435C1.04477 13.9889 1.43656 14.297 1.87418 14.297C1.93465 14.297 1.9969 14.291 2.05915 14.2787L6.16071 13.4584C6.6679 13.3567 6.99752 12.8628 6.8959 12.3551C6.79427 11.8484 6.30443 11.5192 5.79265 11.6199Z" fill="#36A0DD"/>
</svg>
