<svg width="86" height="87" viewBox="0 0 86 87" fill="none" xmlns="http://www.w3.org/2000/svg">
<circle opacity="0.3" cx="43" cy="43.229" r="42" stroke="#00AEFF" stroke-width="2"/>
<path opacity="0.1" d="M21.0171 42.5436C21.0171 30.7813 30.5497 21.2461 42.3146 21.2461C54.0768 21.2461 63.612 30.7787 63.612 42.5436C63.612 54.3058 54.0794 63.8411 42.3146 63.8411C30.5523 63.8411 21.0171 54.3084 21.0171 42.5436Z" fill="#00AEFF"/>
<path fill-rule="evenodd" clip-rule="evenodd" d="M43 19.229V24.029C32.44 24.029 23.8 32.669 23.8 43.229C23.8 53.789 32.44 62.429 43 62.429C53.56 62.429 62.2 53.789 62.2 43.229H67C67 56.429 56.2 67.229 43 67.229C29.8 67.229 19 56.429 19 43.229C19 30.029 29.8 19.229 43 19.229ZM43 28.829V33.629C37.72 33.629 33.4 37.949 33.4 43.229C33.4 48.509 37.72 52.829 43 52.829C48.28 52.829 52.6 48.509 52.6 43.229H57.4C57.4 51.149 50.92 57.629 43 57.629C35.08 57.629 28.6 51.149 28.6 43.229C28.6 35.309 35.08 28.829 43 28.829Z" fill="#00AEFF"/>
<path fill-rule="evenodd" clip-rule="evenodd" d="M42.9992 48.0302C40.3592 48.0302 38.1992 45.8702 38.1992 43.2302C38.1992 40.5902 40.3592 38.4302 42.9992 38.4302C45.6392 38.4302 47.7992 40.5902 47.7992 43.2302C47.7992 45.8702 45.6392 48.0302 42.9992 48.0302Z" fill="#00AEFF"/>
</svg>
