<svg width="86" height="87" viewBox="0 0 86 87" fill="none" xmlns="http://www.w3.org/2000/svg">
<circle opacity="0.3" cx="43" cy="43.229" r="42" stroke="#FEB931" stroke-width="2"/>
<path d="M31.3384 27.8543C29.9386 28.9175 28.6885 30.1676 27.6253 31.5674L23.4208 29.1399C24.9431 27.0279 26.7988 25.1721 28.9109 23.6497L31.3384 27.8543ZM23.854 40.8171H19C19.2631 38.1669 19.955 35.6429 21.0055 33.3155L25.2102 35.7431C24.539 37.3366 24.0756 39.0393 23.854 40.8171ZM54.6615 58.6036C56.0613 57.5403 57.3113 56.2903 58.3746 54.8905L62.5791 57.318C61.0568 59.43 59.2011 61.2858 57.089 62.8082L54.6615 58.6036ZM62.1459 45.6408H66.9999C66.7368 48.291 66.0449 50.815 64.9944 53.1424L60.7897 50.7148C61.4609 49.1213 61.9243 47.4186 62.1459 45.6408ZM31.3384 58.6036L28.9109 62.8081C26.7989 61.2858 24.9431 59.4301 23.4207 57.318L27.6253 54.8905C28.6885 56.2903 29.9386 57.5403 31.3384 58.6036ZM23.854 45.6408C24.0756 47.4187 24.539 49.1213 25.2102 50.7149L21.0054 53.1425C19.955 50.8152 19.263 48.2912 19 45.6408H23.854ZM62.1459 40.8171C61.0578 32.0877 54.1407 25.1711 45.4118 24.083V19.229C56.8068 20.3601 65.8687 29.42 66.9999 40.8171H62.1459ZM40.588 24.083C38.8102 24.3046 37.1076 24.768 35.514 25.4392L33.0864 21.2344C35.4137 20.184 37.9377 19.4921 40.588 19.229V24.083ZM45.4118 62.3749C47.1897 62.1533 48.8923 61.6899 50.4858 61.0187L52.9135 65.2235C50.5862 66.2739 48.0622 66.9658 45.4118 67.2289V62.3749ZM40.588 62.3749V67.2289C37.9379 66.9658 35.4139 66.2739 33.0865 65.2234L35.5141 61.0187C37.1076 61.6899 38.8102 62.1533 40.588 62.3749Z" fill="#FEB931"/>
<path d="M45.4117 28.7578H40.5879V45.6411H45.4117V28.7578Z" fill="#FEB931"/>
<path d="M52.6474 40.8169H40.5879V45.6407H52.6474V40.8169Z" fill="#FEB931"/>
<path opacity="0.1" d="M27.4707 43.2291C27.4707 34.6525 34.4216 27.6997 43.0001 27.6997C51.5768 27.6997 58.5295 34.6506 58.5295 43.2291C58.5295 51.8058 51.5787 58.7585 43.0001 58.7585C34.4235 58.7585 27.4707 51.8077 27.4707 43.2291Z" fill="#FEB931"/>
</svg>
